<?xml version="1.0" encoding="UTF-8" standalone="no"?>
<svg
   width="400"
   height="200"
   viewBox="0 0 400 200"
   fill="none"
   version="1.1"
   id="svg122"
   sodipodi:docname="assets.svg"
   inkscape:version="1.3.2 (091e20ef0f, 2023-11-25)"
   xmlns:inkscape="http://www.inkscape.org/namespaces/inkscape"
   xmlns:sodipodi="http://sodipodi.sourceforge.net/DTD/sodipodi-0.dtd"
   xmlns="http://www.w3.org/2000/svg"
   xmlns:svg="http://www.w3.org/2000/svg">
  <sodipodi:namedview
     id="namedview122"
     pagecolor="#ffffff"
     bordercolor="#000000"
     borderopacity="0.25"
     inkscape:showpageshadow="2"
     inkscape:pageopacity="0.0"
     inkscape:pagecheckerboard="0"
     inkscape:deskcolor="#d1d1d1"
     inkscape:zoom="3.26"
     inkscape:cx="191.41104"
     inkscape:cy="71.01227"
     inkscape:window-width="2358"
     inkscape:window-height="1370"
     inkscape:window-x="0"
     inkscape:window-y="0"
     inkscape:window-maximized="1"
     inkscape:current-layer="layer21" />
  <g
     clip-path="url(#clip0_1_5)"
     id="g52">
    <path
       d="M400 0H200V200H400V0Z"
       fill="url(#paint0_linear_1_5)"
       id="path1" />
    <path
       d="M200 0H0V200H200V0Z"
       fill="url(#paint1_linear_1_5)"
       id="path2" />
  </g>
  <defs
     id="defs122">
    <filter
       id="filter0_f_1_5"
       x="352.636"
       y="61.0696"
       width="34.729"
       height="29.8608"
       filterUnits="userSpaceOnUse"
       color-interpolation-filters="sRGB">
      <feFlood
         flood-opacity="0"
         result="BackgroundImageFix"
         id="feFlood52" />
      <feBlend
         mode="normal"
         in="SourceGraphic"
         in2="BackgroundImageFix"
         result="shape"
         id="feBlend52" />
      <feGaussianBlur
         stdDeviation="1.5888"
         result="effect1_foregroundBlur_1_5"
         id="feGaussianBlur52" />
    </filter>
    <filter
       id="filter1_f_1_5"
       x="307.636"
       y="61.0696"
       width="34.729"
       height="29.8608"
       filterUnits="userSpaceOnUse"
       color-interpolation-filters="sRGB">
      <feFlood
         flood-opacity="0"
         result="BackgroundImageFix"
         id="feFlood53" />
      <feBlend
         mode="normal"
         in="SourceGraphic"
         in2="BackgroundImageFix"
         result="shape"
         id="feBlend53" />
      <feGaussianBlur
         stdDeviation="1.5888"
         result="effect1_foregroundBlur_1_5"
         id="feGaussianBlur53" />
    </filter>
    <filter
       id="filter2_f_1_5"
       x="268.07"
       y="59.6355"
       width="29.8608"
       height="34.7289"
       filterUnits="userSpaceOnUse"
       color-interpolation-filters="sRGB">
      <feFlood
         flood-opacity="0"
         result="BackgroundImageFix"
         id="feFlood54" />
      <feBlend
         mode="normal"
         in="SourceGraphic"
         in2="BackgroundImageFix"
         result="shape"
         id="feBlend54" />
      <feGaussianBlur
         stdDeviation="1.5888"
         result="effect1_foregroundBlur_1_5"
         id="feGaussianBlur54" />
    </filter>
    <filter
       id="filter3_f_1_5"
       x="225.07"
       y="57.6355"
       width="29.8608"
       height="34.7289"
       filterUnits="userSpaceOnUse"
       color-interpolation-filters="sRGB">
      <feFlood
         flood-opacity="0"
         result="BackgroundImageFix"
         id="feFlood55" />
      <feBlend
         mode="normal"
         in="SourceGraphic"
         in2="BackgroundImageFix"
         result="shape"
         id="feBlend55" />
      <feGaussianBlur
         stdDeviation="1.5888"
         result="effect1_foregroundBlur_1_5"
         id="feGaussianBlur55" />
    </filter>
    <filter
       id="filter4_f_1_5"
       x="352.636"
       y="19.0696"
       width="34.729"
       height="29.8608"
       filterUnits="userSpaceOnUse"
       color-interpolation-filters="sRGB">
      <feFlood
         flood-opacity="0"
         result="BackgroundImageFix"
         id="feFlood56" />
      <feBlend
         mode="normal"
         in="SourceGraphic"
         in2="BackgroundImageFix"
         result="shape"
         id="feBlend56" />
      <feGaussianBlur
         stdDeviation="1.5888"
         result="effect1_foregroundBlur_1_5"
         id="feGaussianBlur56" />
    </filter>
    <filter
       id="filter5_f_1_5"
       x="307.636"
       y="19.0696"
       width="34.729"
       height="29.8608"
       filterUnits="userSpaceOnUse"
       color-interpolation-filters="sRGB">
      <feFlood
         flood-opacity="0"
         result="BackgroundImageFix"
         id="feFlood57" />
      <feBlend
         mode="normal"
         in="SourceGraphic"
         in2="BackgroundImageFix"
         result="shape"
         id="feBlend57" />
      <feGaussianBlur
         stdDeviation="1.5888"
         result="effect1_foregroundBlur_1_5"
         id="feGaussianBlur57" />
    </filter>
    <filter
       id="filter6_f_1_5"
       x="268.07"
       y="17.6355"
       width="29.8608"
       height="34.7289"
       filterUnits="userSpaceOnUse"
       color-interpolation-filters="sRGB">
      <feFlood
         flood-opacity="0"
         result="BackgroundImageFix"
         id="feFlood58" />
      <feBlend
         mode="normal"
         in="SourceGraphic"
         in2="BackgroundImageFix"
         result="shape"
         id="feBlend58" />
      <feGaussianBlur
         stdDeviation="1.5888"
         result="effect1_foregroundBlur_1_5"
         id="feGaussianBlur58" />
    </filter>
    <filter
       id="filter7_f_1_5"
       x="225.07"
       y="15.6355"
       width="29.8608"
       height="34.7289"
       filterUnits="userSpaceOnUse"
       color-interpolation-filters="sRGB">
      <feFlood
         flood-opacity="0"
         result="BackgroundImageFix"
         id="feFlood59" />
      <feBlend
         mode="normal"
         in="SourceGraphic"
         in2="BackgroundImageFix"
         result="shape"
         id="feBlend59" />
      <feGaussianBlur
         stdDeviation="1.5888"
         result="effect1_foregroundBlur_1_5"
         id="feGaussianBlur59" />
    </filter>
    <filter
       id="filter8_f_1_5"
       x="147.636"
       y="61.0696"
       width="34.7289"
       height="29.8608"
       filterUnits="userSpaceOnUse"
       color-interpolation-filters="sRGB">
      <feFlood
         flood-opacity="0"
         result="BackgroundImageFix"
         id="feFlood60" />
      <feBlend
         mode="normal"
         in="SourceGraphic"
         in2="BackgroundImageFix"
         result="shape"
         id="feBlend60" />
      <feGaussianBlur
         stdDeviation="1.5888"
         result="effect1_foregroundBlur_1_5"
         id="feGaussianBlur60" />
    </filter>
    <filter
       id="filter9_f_1_5"
       x="102.636"
       y="61.0696"
       width="34.7289"
       height="29.8608"
       filterUnits="userSpaceOnUse"
       color-interpolation-filters="sRGB">
      <feFlood
         flood-opacity="0"
         result="BackgroundImageFix"
         id="feFlood61" />
      <feBlend
         mode="normal"
         in="SourceGraphic"
         in2="BackgroundImageFix"
         result="shape"
         id="feBlend61" />
      <feGaussianBlur
         stdDeviation="1.5888"
         result="effect1_foregroundBlur_1_5"
         id="feGaussianBlur61" />
    </filter>
    <filter
       id="filter10_f_1_5"
       x="63.0696"
       y="59.6355"
       width="29.8608"
       height="34.7289"
       filterUnits="userSpaceOnUse"
       color-interpolation-filters="sRGB">
      <feFlood
         flood-opacity="0"
         result="BackgroundImageFix"
         id="feFlood62" />
      <feBlend
         mode="normal"
         in="SourceGraphic"
         in2="BackgroundImageFix"
         result="shape"
         id="feBlend62" />
      <feGaussianBlur
         stdDeviation="1.5888"
         result="effect1_foregroundBlur_1_5"
         id="feGaussianBlur62" />
    </filter>
    <filter
       id="filter11_f_1_5"
       x="20.0696"
       y="57.6355"
       width="29.8608"
       height="34.7289"
       filterUnits="userSpaceOnUse"
       color-interpolation-filters="sRGB">
      <feFlood
         flood-opacity="0"
         result="BackgroundImageFix"
         id="feFlood63" />
      <feBlend
         mode="normal"
         in="SourceGraphic"
         in2="BackgroundImageFix"
         result="shape"
         id="feBlend63" />
      <feGaussianBlur
         stdDeviation="1.5888"
         result="effect1_foregroundBlur_1_5"
         id="feGaussianBlur63" />
    </filter>
    <filter
       id="filter12_f_1_5"
       x="147.636"
       y="19.0696"
       width="34.7289"
       height="29.8608"
       filterUnits="userSpaceOnUse"
       color-interpolation-filters="sRGB">
      <feFlood
         flood-opacity="0"
         result="BackgroundImageFix"
         id="feFlood64" />
      <feBlend
         mode="normal"
         in="SourceGraphic"
         in2="BackgroundImageFix"
         result="shape"
         id="feBlend64" />
      <feGaussianBlur
         stdDeviation="1.5888"
         result="effect1_foregroundBlur_1_5"
         id="feGaussianBlur64" />
    </filter>
    <filter
       id="filter13_f_1_5"
       x="102.636"
       y="19.0696"
       width="34.7289"
       height="29.8608"
       filterUnits="userSpaceOnUse"
       color-interpolation-filters="sRGB">
      <feFlood
         flood-opacity="0"
         result="BackgroundImageFix"
         id="feFlood65" />
      <feBlend
         mode="normal"
         in="SourceGraphic"
         in2="BackgroundImageFix"
         result="shape"
         id="feBlend65" />
      <feGaussianBlur
         stdDeviation="1.5888"
         result="effect1_foregroundBlur_1_5"
         id="feGaussianBlur65" />
    </filter>
    <filter
       id="filter14_f_1_5"
       x="63.0696"
       y="17.6355"
       width="29.8608"
       height="34.7289"
       filterUnits="userSpaceOnUse"
       color-interpolation-filters="sRGB">
      <feFlood
         flood-opacity="0"
         result="BackgroundImageFix"
         id="feFlood66" />
      <feBlend
         mode="normal"
         in="SourceGraphic"
         in2="BackgroundImageFix"
         result="shape"
         id="feBlend66" />
      <feGaussianBlur
         stdDeviation="1.5888"
         result="effect1_foregroundBlur_1_5"
         id="feGaussianBlur66" />
    </filter>
    <filter
       id="filter15_f_1_5"
       x="20.0696"
       y="15.6355"
       width="29.8608"
       height="34.7289"
       filterUnits="userSpaceOnUse"
       color-interpolation-filters="sRGB">
      <feFlood
         flood-opacity="0"
         result="BackgroundImageFix"
         id="feFlood67" />
      <feBlend
         mode="normal"
         in="SourceGraphic"
         in2="BackgroundImageFix"
         result="shape"
         id="feBlend67" />
      <feGaussianBlur
         stdDeviation="1.5888"
         result="effect1_foregroundBlur_1_5"
         id="feGaussianBlur67" />
    </filter>
    <linearGradient
       id="paint0_linear_1_5"
       x1="200"
       y1="0"
       x2="400"
       y2="0"
       gradientUnits="userSpaceOnUse">
      <stop
         offset="1"
         stop-color="**base06**"
         id="stop67" />
    </linearGradient>
    <linearGradient
       id="paint1_linear_1_5"
       x1="0"
       y1="0"
       x2="200"
       y2="0"
       gradientUnits="userSpaceOnUse">
      <stop
         offset="1"
         stop-color="**base00**"
         id="stop68"
         style="stop-color:**base01**;stop-opacity:1;" />
    </linearGradient>
    <linearGradient
       id="paint2_linear_1_5"
       x1="310"
       y1="100"
       x2="350"
       y2="100"
       gradientUnits="userSpaceOnUse"
       gradientTransform="translate(-1.5261882)">
      <stop
         offset="1"
         stop-color="**accent01**"
         id="stop69" />
    </linearGradient>
    <linearGradient
       id="paint3_linear_1_5"
       x1="322.673"
       y1="117.577"
       x2="362.25"
       y2="117.577"
       gradientUnits="userSpaceOnUse"
       gradientTransform="translate(-1.8336882,-0.4425021)">
      <stop
         offset="1"
         stop-opacity="0.87"
         id="stop70" />
    </linearGradient>
    <linearGradient
       id="paint4_linear_1_5"
       x1="261"
       y1="102"
       x2="297"
       y2="102"
       gradientUnits="userSpaceOnUse"
       gradientTransform="translate(-0.0881085)">
      <stop
         offset="1"
         stop-color="**base05**"
         id="stop71" />
    </linearGradient>
    <linearGradient
       id="paint5_linear_1_5"
       x1="385.926"
       y1="64.022"
       x2="385.926"
       y2="87.9781"
       gradientUnits="userSpaceOnUse"
       gradientTransform="translate(-1.9362819,2.9999997)">
      <stop
         offset="1"
         stop-color="**base02**"
         id="stop72" />
    </linearGradient>
    <linearGradient
       id="paint6_linear_1_5"
       x1="385.926"
       y1="64.022"
       x2="385.926"
       y2="87.9781"
       gradientUnits="userSpaceOnUse"
       gradientTransform="translate(-1.9362819,2.9999997)">
      <stop
         offset="1"
         stop-color="**base05**"
         id="stop73" />
    </linearGradient>
    <linearGradient
       id="paint7_linear_1_5"
       x1="377.615"
       y1="64.115"
       x2="377.615"
       y2="90.5"
       gradientUnits="userSpaceOnUse"
       gradientTransform="translate(-1.936523,2.4096107)">
      <stop
         offset="1"
         stop-color="**base02**"
         id="stop74" />
    </linearGradient>
    <linearGradient
       id="paint8_linear_1_5"
       x1="385.926"
       y1="64.022"
       x2="385.926"
       y2="87.9781"
       gradientUnits="userSpaceOnUse"
       gradientTransform="translate(-1.936523,2.4096107)">
      <stop
         offset="1"
         stop-color="**base05**"
         id="stop75" />
    </linearGradient>
    <linearGradient
       id="paint9_linear_1_5"
       x1="309.074"
       y1="87.978"
       x2="309.074"
       y2="64.0219"
       gradientUnits="userSpaceOnUse"
       gradientTransform="translate(1.5012826,2.9999998)">
      <stop
         offset="1"
         stop-color="**base02**"
         id="stop76" />
    </linearGradient>
    <linearGradient
       id="paint10_linear_1_5"
       x1="309.074"
       y1="87.978"
       x2="309.074"
       y2="64.0219"
       gradientUnits="userSpaceOnUse"
       gradientTransform="translate(1.5012826,2.9999998)">
      <stop
         offset="1"
         stop-color="**base05**"
         id="stop77" />
    </linearGradient>
    <linearGradient
       id="paint11_linear_1_5"
       x1="317.385"
       y1="87.885"
       x2="317.385"
       y2="61.5"
       gradientUnits="userSpaceOnUse"
       gradientTransform="translate(1.5012813,2.4099998)">
      <stop
         offset="1"
         stop-color="**base02**"
         id="stop78" />
    </linearGradient>
    <linearGradient
       id="paint12_linear_1_5"
       x1="309.074"
       y1="87.978"
       x2="309.074"
       y2="64.0219"
       gradientUnits="userSpaceOnUse"
       gradientTransform="translate(1.5012813,2.4099998)">
      <stop
         offset="1"
         stop-color="**base05**"
         id="stop79" />
    </linearGradient>
    <linearGradient
       id="paint13_linear_1_5"
       x1="294.978"
       y1="92.9264"
       x2="271.022"
       y2="92.9264"
       gradientUnits="userSpaceOnUse"
       gradientTransform="translate(0.76300098,0.53699635)">
      <stop
         offset="1"
         stop-color="**base02**"
         id="stop80" />
    </linearGradient>
    <linearGradient
       id="paint14_linear_1_5"
       x1="294.978"
       y1="92.9264"
       x2="271.022"
       y2="92.9264"
       gradientUnits="userSpaceOnUse"
       gradientTransform="translate(0.76300098,0.53699635)">
      <stop
         offset="1"
         stop-color="**base05**"
         id="stop81" />
    </linearGradient>
    <linearGradient
       id="paint15_linear_1_5"
       x1="294.885"
       y1="84.615"
       x2="268.5"
       y2="84.615"
       gradientUnits="userSpaceOnUse"
       gradientTransform="translate(0.76300049,-0.0530039)">
      <stop
         offset="1"
         stop-color="**base02**"
         id="stop82" />
    </linearGradient>
    <linearGradient
       id="paint16_linear_1_5"
       x1="294.978"
       y1="92.9264"
       x2="271.022"
       y2="92.9264"
       gradientUnits="userSpaceOnUse"
       gradientTransform="translate(0.76300049,-0.0530039)">
      <stop
         offset="1"
         stop-color="**base05**"
         id="stop83" />
    </linearGradient>
    <linearGradient
       id="paint17_linear_1_5"
       x1="228.022"
       y1="59.0736"
       x2="251.978"
       y2="59.0736"
       gradientUnits="userSpaceOnUse"
       gradientTransform="translate(0.77323828,5.4630036)">
      <stop
         offset="1"
         stop-color="**base02**"
         id="stop84" />
    </linearGradient>
    <linearGradient
       id="paint18_linear_1_5"
       x1="228.022"
       y1="59.0736"
       x2="251.978"
       y2="59.0736"
       gradientUnits="userSpaceOnUse"
       gradientTransform="translate(0.77323828,5.4630036)">
      <stop
         offset="1"
         stop-color="**base05**"
         id="stop85" />
    </linearGradient>
    <linearGradient
       id="paint19_linear_1_5"
       x1="228.115"
       y1="67.385"
       x2="254.5"
       y2="67.385"
       gradientUnits="userSpaceOnUse"
       gradientTransform="translate(0.77323914,4.7047499)">
      <stop
         offset="1"
         stop-color="**base02**"
         id="stop86" />
    </linearGradient>
    <linearGradient
       id="paint20_linear_1_5"
       x1="228.022"
       y1="59.0736"
       x2="251.978"
       y2="59.0736"
       gradientUnits="userSpaceOnUse"
       gradientTransform="translate(0.77323914,4.7047499)">
      <stop
         offset="1"
         stop-color="**base05**"
         id="stop87" />
    </linearGradient>
    <linearGradient
       id="paint21_linear_1_5"
       x1="388"
       y1="15"
       x2="388"
       y2="55"
       gradientUnits="userSpaceOnUse"
       gradientTransform="translate(-0.24520666,1.0000001)">
      <stop
         offset="1"
         stop-color="**accent01**"
         id="stop88" />
    </linearGradient>
    <linearGradient
       id="paint22_linear_1_5"
       x1="385.926"
       y1="22.022"
       x2="385.926"
       y2="45.9781"
       gradientUnits="userSpaceOnUse"
       gradientTransform="translate(-0.24520666,1.0000001)">
      <stop
         offset="1"
         stop-color="**base05**"
         id="stop89" />
    </linearGradient>
    <linearGradient
       id="paint23_linear_1_5"
       x1="307"
       y1="53"
       x2="307"
       y2="13"
       gradientUnits="userSpaceOnUse"
       gradientTransform="translate(-0.46493142,0.9999996)">
      <stop
         offset="1"
         stop-color="**accent01**"
         id="stop90" />
    </linearGradient>
    <linearGradient
       id="paint24_linear_1_5"
       x1="309.074"
       y1="45.978"
       x2="309.074"
       y2="22.0219"
       gradientUnits="userSpaceOnUse"
       gradientTransform="translate(-0.46493142,0.9999996)">
      <stop
         offset="1"
         stop-color="**base05**"
         id="stop91" />
    </linearGradient>
    <linearGradient
       id="paint25_linear_1_5"
       x1="302"
       y1="53"
       x2="262"
       y2="53"
       gradientUnits="userSpaceOnUse"
       gradientTransform="translate(-0.57226124,-1.4630034)">
      <stop
         offset="1"
         stop-color="**accent01**"
         id="stop92" />
    </linearGradient>
    <linearGradient
       id="paint26_linear_1_5"
       x1="294.978"
       y1="50.9264"
       x2="271.022"
       y2="50.9264"
       gradientUnits="userSpaceOnUse"
       gradientTransform="translate(-0.57226124,-1.4630034)">
      <stop
         offset="1"
         stop-color="**base05**"
         id="stop93" />
    </linearGradient>
    <linearGradient
       id="paint27_linear_1_5"
       x1="221"
       y1="15"
       x2="261"
       y2="15"
       gradientUnits="userSpaceOnUse"
       gradientTransform="translate(-0.4548645,3.4630037)">
      <stop
         offset="1"
         stop-color="**accent01**"
         id="stop94" />
    </linearGradient>
    <linearGradient
       id="paint28_linear_1_5"
       x1="228.022"
       y1="17.0736"
       x2="251.978"
       y2="17.0736"
       gradientUnits="userSpaceOnUse"
       gradientTransform="translate(-0.4548645,3.4630037)">
      <stop
         offset="1"
         stop-color="**base05**"
         id="stop95" />
    </linearGradient>
    <linearGradient
       id="paint29_linear_1_5"
       x1="105"
       y1="100"
       x2="145"
       y2="100"
       gradientUnits="userSpaceOnUse"
       gradientTransform="translate(-0.55465698)">
      <stop
         offset="1"
         stop-color="**accent02**"
         id="stop96" />
    </linearGradient>
    <linearGradient
       id="paint30_linear_1_5"
       x1="117.673"
       y1="117.577"
       x2="157.25"
       y2="117.577"
       gradientUnits="userSpaceOnUse"
       gradientTransform="translate(-0.86215698,-0.4425)">
      <stop
         offset="1"
         stop-color="white"
         id="stop97" />
    </linearGradient>
    <linearGradient
       id="paint31_linear_1_5"
       x1="54"
       y1="100"
       x2="94"
       y2="100"
       gradientUnits="userSpaceOnUse"
       gradientTransform="translate(0.06157303)">
      <stop
         offset="1"
         stop-color="**base00**"
         id="stop98" />
    </linearGradient>
    <linearGradient
       id="paint32_linear_1_5"
       x1="180.926"
       y1="64.022"
       x2="180.926"
       y2="87.9781"
       gradientUnits="userSpaceOnUse"
       gradientTransform="translate(-3.510284,3)">
      <stop
         offset="1"
         stop-color="**base03**"
         id="stop99" />
    </linearGradient>
    <linearGradient
       id="paint33_linear_1_5"
       x1="180.926"
       y1="64.022"
       x2="180.926"
       y2="87.9781"
       gradientUnits="userSpaceOnUse"
       gradientTransform="translate(-3.510284,3)">
      <stop
         offset="1"
         stop-color="**base00**"
         id="stop100" />
    </linearGradient>
    <linearGradient
       id="paint34_linear_1_5"
       x1="172.615"
       y1="64.115"
       x2="172.615"
       y2="90.5"
       gradientUnits="userSpaceOnUse">
      <stop
         offset="1"
         stop-color="**base03**"
         stop-opacity="0.87"
         id="stop101" />
    </linearGradient>
    <linearGradient
       id="paint35_linear_1_5"
       x1="183"
       y1="57"
       x2="183"
       y2="97"
       gradientUnits="userSpaceOnUse">
      <stop
         offset="1"
         stop-color="**base00**"
         id="stop102" />
    </linearGradient>
    <linearGradient
       id="paint36_linear_1_5"
       x1="104.074"
       y1="87.978"
       x2="104.074"
       y2="64.0219"
       gradientUnits="userSpaceOnUse"
       gradientTransform="translate(-0.87235301,3)">
      <stop
         offset="1"
         stop-color="**base03**"
         id="stop103" />
    </linearGradient>
    <linearGradient
       id="paint37_linear_1_5"
       x1="104.074"
       y1="87.978"
       x2="104.074"
       y2="64.0219"
       gradientUnits="userSpaceOnUse"
       gradientTransform="translate(-0.87235301,3)">
      <stop
         offset="1"
         stop-color="**base00**"
         id="stop104" />
    </linearGradient>
    <linearGradient
       id="paint38_linear_1_5"
       x1="112.385"
       y1="87.885"
       x2="112.385"
       y2="61.5"
       gradientUnits="userSpaceOnUse">
      <stop
         offset="1"
         stop-color="**base03**"
         stop-opacity="0.87"
         id="stop105" />
    </linearGradient>
    <linearGradient
       id="paint39_linear_1_5"
       x1="102"
       y1="95"
       x2="102"
       y2="55"
       gradientUnits="userSpaceOnUse">
      <stop
         offset="1"
         stop-color="**base00**"
         id="stop106" />
    </linearGradient>
    <linearGradient
       id="paint40_linear_1_5"
       x1="66.022"
       y1="92.9264"
       x2="89.9781"
       y2="92.9264"
       gradientUnits="userSpaceOnUse"
       gradientTransform="translate(-0.56283569,0.53702966)">
      <stop
         offset="1"
         stop-color="**base03**"
         id="stop107" />
    </linearGradient>
    <linearGradient
       id="paint41_linear_1_5"
       x1="66.022"
       y1="92.9264"
       x2="89.9781"
       y2="92.9264"
       gradientUnits="userSpaceOnUse"
       gradientTransform="translate(-0.56283569,0.53702966)">
      <stop
         offset="1"
         stop-color="**base00**"
         id="stop108" />
    </linearGradient>
    <linearGradient
       id="paint42_linear_1_5"
       x1="66.115"
       y1="84.615"
       x2="92.5"
       y2="84.615"
       gradientUnits="userSpaceOnUse">
      <stop
         offset="1"
         stop-color="**base03**"
         stop-opacity="0.87"
         id="stop109" />
    </linearGradient>
    <linearGradient
       id="paint43_linear_1_5"
       x1="59"
       y1="95"
       x2="99"
       y2="95"
       gradientUnits="userSpaceOnUse">
      <stop
         offset="1"
         stop-color="**base00**"
         id="stop110" />
    </linearGradient>
    <linearGradient
       id="paint44_linear_1_5"
       x1="23.022"
       y1="59.0736"
       x2="46.9781"
       y2="59.0736"
       gradientUnits="userSpaceOnUse"
       gradientTransform="translate(0.28321457,4.99975)">
      <stop
         offset="1"
         stop-color="**base03**"
         id="stop111" />
    </linearGradient>
    <linearGradient
       id="paint45_linear_1_5"
       x1="23.022"
       y1="59.0736"
       x2="46.9781"
       y2="59.0736"
       gradientUnits="userSpaceOnUse"
       gradientTransform="translate(0.28321457,4.99975)">
      <stop
         offset="1"
         stop-color="**base00**"
         id="stop112" />
    </linearGradient>
    <linearGradient
       id="paint46_linear_1_5"
       x1="23.115"
       y1="67.385"
       x2="49.5"
       y2="67.385"
       gradientUnits="userSpaceOnUse">
      <stop
         offset="1"
         stop-color="**base03**"
         id="stop113" />
    </linearGradient>
    <linearGradient
       id="paint47_linear_1_5"
       x1="16"
       y1="57"
       x2="56"
       y2="57"
       gradientUnits="userSpaceOnUse">
      <stop
         offset="1"
         stop-color="**base00**"
         id="stop114" />
    </linearGradient>
    <linearGradient
       id="paint48_linear_1_5"
       x1="183"
       y1="15"
       x2="183"
       y2="55"
       gradientUnits="userSpaceOnUse"
       gradientTransform="translate(-0.91981465,1)">
      <stop
         offset="1"
         stop-color="**accent02**"
         id="stop115" />
    </linearGradient>
    <linearGradient
       id="paint49_linear_1_5"
       x1="181.431"
       y1="20.3383"
       x2="181.431"
       y2="47.6617"
       gradientUnits="userSpaceOnUse"
       gradientTransform="translate(-0.91981465,1)">
      <stop
         offset="1"
         stop-color="**base00**"
         id="stop116" />
    </linearGradient>
    <linearGradient
       id="paint50_linear_1_5"
       x1="102"
       y1="53"
       x2="102"
       y2="13"
       gradientUnits="userSpaceOnUse"
       gradientTransform="translate(0.96572835,1)">
      <stop
         offset="1"
         stop-color="**accent02**"
         id="stop117" />
    </linearGradient>
    <linearGradient
       id="paint51_linear_1_5"
       x1="103.569"
       y1="47.6617"
       x2="103.569"
       y2="20.3383"
       gradientUnits="userSpaceOnUse"
       gradientTransform="translate(0.96572835,1)">
      <stop
         offset="1"
         stop-color="**base00**"
         id="stop118" />
    </linearGradient>
    <linearGradient
       id="paint52_linear_1_5"
       x1="59"
       y1="53"
       x2="99"
       y2="53"
       gradientUnits="userSpaceOnUse"
       gradientTransform="translate(-0.91871262,-1.4629703)">
      <stop
         offset="1"
         stop-color="**accent02**"
         id="stop119" />
    </linearGradient>
    <linearGradient
       id="paint53_linear_1_5"
       x1="64.3383"
       y1="51.431"
       x2="91.6617"
       y2="51.431"
       gradientUnits="userSpaceOnUse"
       gradientTransform="translate(-0.91871262,-1.4629703)">
      <stop
         offset="1"
         stop-color="**base00**"
         id="stop120" />
    </linearGradient>
    <linearGradient
       id="paint54_linear_1_5"
       x1="16"
       y1="15"
       x2="56"
       y2="15"
       gradientUnits="userSpaceOnUse"
       gradientTransform="translate(1.4143505,3.4629703)">
      <stop
         offset="1"
         stop-color="**accent02**"
         id="stop121" />
    </linearGradient>
    <linearGradient
       id="paint55_linear_1_5"
       x1="21.3383"
       y1="16.569"
       x2="48.6617"
       y2="16.569"
       gradientUnits="userSpaceOnUse"
       gradientTransform="translate(1.4143505,3.4629703)">
      <stop
         offset="1"
         stop-color="**base00**"
         id="stop122" />
    </linearGradient>
    <clipPath
       id="clip0_1_5">
      <rect
         width="400"
         height="200"
         fill="white"
         id="rect122" />
    </clipPath>
  </defs>
  <g
     inkscape:groupmode="layer"
     id="***selectionmode-checkbox-checked-dark"
     inkscape:label="***selectionmode-checkbox-checked-dark">
    <rect
       style="fill:none;stroke-width:1.10075"
       id="rect123-5"
       width="40"
       height="40"
       x="308.47382"
       y="100"
       inkscape:label="empty_background" />
    <path
       d="m 342.47382,102 h -28 c -2.209,0 -4,1.791 -4,4 v 28 c 0,2.209 1.791,4 4,4 h 28 c 2.209,0 4,-1.791 4,-4 v -28 c 0,-2.209 -1.791,-4 -4,-4 z"
       fill="url(#paint2_linear_1_5)"
       id="path3"
       style="fill:url(#paint2_linear_1_5)" />
    <path
       d="m 323.66632,125.8125 -6.255,-6.255 -2.13,2.115 8.385,8.385 18,-18 -2.115,-2.115 z"
       fill="url(#paint3_linear_1_5)"
       id="path4"
       style="fill:url(#paint3_linear_1_5)" />
  </g>
  <g
     inkscape:groupmode="layer"
     id="***selectionmode-checkbox-unchecked-dark"
     inkscape:label="***selectionmode-checkbox-unchecked-dark">
    <rect
       style="fill:none;stroke-width:1.10074"
       id="rect123-5-3"
       width="40"
       height="40"
       x="258.9119"
       y="100"
       inkscape:label="empty_background" />
    <path
       d="m 292.9119,102 h -28 c -2.209,0 -4,1.791 -4,4 v 28 c 0,2.209 1.791,4 4,4 h 28 c 2.209,0 4,-1.791 4,-4 v -28 c 0,-2.209 -1.791,-4 -4,-4 z"
       fill="url(#paint4_linear_1_5)"
       id="path5"
       style="fill:url(#paint4_linear_1_5)" />
  </g>
  <g
     inkscape:groupmode="layer"
     id="**scale-vert-marks-after-slider-disabled-dark"
     inkscape:label="**scale-vert-marks-after-slider-disabled-dark">
    <rect
       style="fill:none;stroke-width:1.04572"
       id="rect123"
       width="38"
       height="38"
       x="350.52701"
       y="60"
       inkscape:label="empty_background" />
    <path
       d="m 379.74772,79 -6.351,6.3512 c -1.257,1.2561 -2.857,2.1116 -4.599,2.4581 -1.743,0.3466 -3.549,0.1687 -5.19,-0.5111 -1.641,-0.6798 -3.044,-1.831 -4.031,-3.3081 -0.987,-1.4771 -1.513,-3.2136 -1.513,-4.9901 0,-1.7764 0.526,-3.513 1.513,-4.9901 0.987,-1.477 2.39,-2.6283 4.031,-3.3081 1.641,-0.6798 3.447,-0.8577 5.19,-0.5111 1.742,0.3466 3.342,1.202 4.599,2.4581 z"
       fill="url(#paint5_linear_1_5)"
       stroke="url(#paint6_linear_1_5)"
       stroke-width="6"
       stroke-linecap="round"
       id="path7"
       style="fill:url(#paint5_linear_1_5);stroke:url(#paint6_linear_1_5);image-rendering:auto" />
  </g>
  <g
     inkscape:groupmode="layer"
     id="**scale-vert-marks-before-slider-disabled-dark"
     inkscape:label="**scale-vert-marks-before-slider-disabled-dark">
    <rect
       style="fill:none;stroke-width:1.04572"
       id="rect123-3"
       width="38"
       height="38"
       x="306.03799"
       y="60"
       inkscape:label="empty_background" />
    <path
       d="m 314.81728,79 6.351,-6.3512 c 1.257,-1.2561 2.857,-2.1116 4.599,-2.4581 1.743,-0.3466 3.549,-0.1687 5.19,0.5111 1.641,0.6798 3.044,1.831 4.031,3.3081 0.987,1.4771 1.513,3.2136 1.513,4.9901 0,1.7764 -0.526,3.513 -1.513,4.9901 -0.987,1.477 -2.39,2.6283 -4.031,3.3081 -1.641,0.6798 -3.447,0.8577 -5.19,0.5111 -1.742,-0.3466 -3.342,-1.202 -4.599,-2.4581 z"
       fill="url(#paint9_linear_1_5)"
       stroke="url(#paint10_linear_1_5)"
       stroke-width="6"
       stroke-linecap="round"
       id="path10"
       style="fill:url(#paint9_linear_1_5);stroke:url(#paint10_linear_1_5)" />
  </g>
  <g
     inkscape:groupmode="layer"
     id="**scale-horz-marks-after-slider-disabled-dark"
     inkscape:label="**scale-horz-marks-after-slider-disabled-dark">
    <rect
       style="fill:none;stroke-width:1.04572"
       id="rect123-3-6"
       width="38"
       height="38"
       x="264.763"
       y="60"
       inkscape:label="empty_background" />
    <path
       d="m 283.763,89.220796 -6.351,-6.3512 c -1.256,-1.2561 -2.112,-2.8565 -2.458,-4.5989 -0.347,-1.7423 -0.169,-3.5482 0.511,-5.1895 0.68,-1.6412 1.831,-3.044 3.308,-4.0309 1.477,-0.987 3.214,-1.5138 4.99,-1.5138 1.776,0 3.513,0.5268 4.99,1.5138 1.477,0.9869 2.628,2.3897 3.308,4.0309 0.68,1.6413 0.858,3.4472 0.511,5.1895 -0.346,1.7424 -1.202,3.3428 -2.458,4.5989 z"
       fill="url(#paint13_linear_1_5)"
       stroke="url(#paint14_linear_1_5)"
       stroke-width="6"
       stroke-linecap="round"
       id="path13"
       style="fill:url(#paint13_linear_1_5);stroke:url(#paint14_linear_1_5)" />
  </g>
  <g
     inkscape:groupmode="layer"
     id="**scale-horz-marks-before-slider-disabled-dark"
     inkscape:label="**scale-horz-marks-before-slider-disabled-dark">
    <rect
       style="fill:none;stroke-width:1.04572"
       id="rect123-3-6-7"
       width="38"
       height="38"
       x="221.77324"
       y="60"
       inkscape:label="empty_background" />
    <path
       d="m 240.77324,68.779204 6.351,6.3512 c 1.256,1.2561 2.112,2.8565 2.458,4.5989 0.347,1.7423 0.169,3.5482 -0.511,5.1895 -0.68,1.6412 -1.831,3.044 -3.308,4.0309 -1.477,0.987 -3.214,1.5138 -4.99,1.5138 -1.776,0 -3.513,-0.5268 -4.99,-1.5138 -1.477,-0.9869 -2.628,-2.3897 -3.308,-4.0309 -0.68,-1.6413 -0.858,-3.4472 -0.511,-5.1895 0.346,-1.7424 1.202,-3.3428 2.458,-4.5989 z"
       fill="url(#paint17_linear_1_5)"
       stroke="url(#paint18_linear_1_5)"
       stroke-width="6"
       stroke-linecap="round"
       id="path16"
       style="display:inline;fill:url(#paint17_linear_1_5);stroke:url(#paint18_linear_1_5)" />
  </g>
  <g
     inkscape:groupmode="layer"
     id="**scale-vert-marks-after-slider-dark"
     inkscape:label="**scale-vert-marks-after-slider-dark">
    <rect
       style="fill:none;stroke-width:1.04572"
       id="rect123-3-6-7-5"
       width="38"
       height="38"
       x="352.21808"
       y="16"
       inkscape:label="empty_background" />
    <path
       d="m 381.43879,35 -6.351,6.3512 c -1.257,1.2561 -2.857,2.1116 -4.599,2.4581 -1.743,0.3466 -3.549,0.1687 -5.19,-0.5111 -1.641,-0.6798 -3.044,-1.831 -4.031,-3.3081 -0.987,-1.4771 -1.513,-3.2136 -1.513,-4.9901 0,-1.7764 0.526,-3.513 1.513,-4.9901 0.987,-1.477 2.39,-2.6283 4.031,-3.3081 1.641,-0.6798 3.447,-0.8577 5.19,-0.5111 1.742,0.3466 3.342,1.202 4.599,2.4581 z"
       fill="url(#paint21_linear_1_5)"
       stroke="url(#paint22_linear_1_5)"
       stroke-width="6"
       stroke-linecap="round"
       id="path19"
       style="display:inline;fill:url(#paint21_linear_1_5);stroke:url(#paint22_linear_1_5)" />
  </g>
  <g
     inkscape:groupmode="layer"
     id="**scale-vert-marks-before-slider-dark"
     inkscape:label="**scale-vert-marks-before-slider-dark">
    <rect
       style="fill:none;stroke-width:1.04572"
       id="rect123-3-6-7-5-6"
       width="38"
       height="38"
       x="304.07178"
       y="16"
       inkscape:label="empty_background" />
    <path
       d="m 312.85106,35 6.351,-6.3512 c 1.257,-1.2561 2.857,-2.1116 4.599,-2.4581 1.743,-0.3466 3.549,-0.1687 5.19,0.5111 1.641,0.6798 3.044,1.831 4.031,3.3081 0.987,1.4771 1.513,3.2136 1.513,4.9901 0,1.7764 -0.526,3.513 -1.513,4.9901 -0.987,1.477 -2.39,2.6283 -4.031,3.3081 -1.641,0.6798 -3.447,0.8577 -5.19,0.5111 -1.742,-0.3466 -3.342,-1.202 -4.599,-2.4581 z"
       fill="url(#paint23_linear_1_5)"
       stroke="url(#paint24_linear_1_5)"
       stroke-width="6"
       stroke-linecap="round"
       id="path22"
       style="display:inline;fill:url(#paint23_linear_1_5);stroke:url(#paint24_linear_1_5)" />
  </g>
  <g
     inkscape:groupmode="layer"
     id="**scale-horz-marks-after-slider-dark"
     inkscape:label="**scale-horz-marks-after-slider-dark">
    <rect
       style="fill:none;stroke-width:1.04572"
       id="rect123-3-6-7-5-6-2"
       width="38"
       height="38"
       x="263.42773"
       y="16"
       inkscape:label="empty_background" />
    <path
       d="m 282.42773,45.220796 -6.351,-6.3512 c -1.256,-1.2561 -2.112,-2.8565 -2.458,-4.5989 -0.347,-1.7423 -0.169,-3.5482 0.511,-5.1895 0.68,-1.6412 1.831,-3.044 3.308,-4.0309 1.477,-0.987 3.214,-1.5138 4.99,-1.5138 1.776,0 3.513,0.5268 4.99,1.5138 1.477,0.9869 2.628,2.3897 3.308,4.0309 0.68,1.6413 0.858,3.4472 0.511,5.1895 -0.346,1.7424 -1.202,3.3428 -2.458,4.5989 z"
       fill="url(#paint25_linear_1_5)"
       stroke="url(#paint26_linear_1_5)"
       stroke-width="6"
       stroke-linecap="round"
       id="path25"
       style="display:inline;fill:url(#paint25_linear_1_5);stroke:url(#paint26_linear_1_5)" />
  </g>
  <g
     inkscape:groupmode="layer"
     id="**scale-horz-marks-before-slider-dark"
     inkscape:label="**scale-horz-marks-before-slider-dark">
    <rect
       style="fill:none;stroke-width:1.04572"
       id="rect123-3-6-7-5-6-2-9"
       width="38"
       height="38"
       x="220.54514"
       y="16"
       inkscape:label="empty_background" />
    <path
       d="m 239.54514,24.779204 6.351,6.3512 c 1.256,1.2561 2.112,2.8566 2.458,4.5989 0.347,1.7423 0.169,3.5483 -0.511,5.1895 -0.68,1.6412 -1.831,3.044 -3.308,4.0309 -1.477,0.987 -3.214,1.5138 -4.99,1.5138 -1.776,0 -3.513,-0.5268 -4.99,-1.5138 -1.477,-0.9869 -2.628,-2.3897 -3.308,-4.0309 -0.68,-1.6412 -0.858,-3.4472 -0.511,-5.1895 0.346,-1.7423 1.202,-3.3428 2.458,-4.5989 z"
       fill="url(#paint27_linear_1_5)"
       stroke="url(#paint28_linear_1_5)"
       stroke-width="6"
       stroke-linecap="round"
       id="path28"
       style="display:inline;fill:url(#paint27_linear_1_5);stroke:url(#paint28_linear_1_5)" />
  </g>
  <g
     inkscape:groupmode="layer"
     id="***selectionmode-checkbox-checked"
     inkscape:label="***selectionmode-checkbox-checked">
    <rect
       style="fill:none;stroke-width:1.10076"
       id="rect123-3-6-7-5-6-2-9-1"
       width="40"
       height="40"
       x="104.44534"
       y="100"
       inkscape:label="empty_background" />
    <path
       d="m 138.44534,102 h -28 c -2.209,0 -4,1.791 -4,4 v 28 c 0,2.209 1.791,4 4,4 h 28 c 2.209,0 4,-1.791 4,-4 v -28 c 0,-2.209 -1.791,-4 -4,-4 z"
       fill="url(#paint29_linear_1_5)"
       id="path30"
       style="fill:url(#paint29_linear_1_5)" />
    <path
       d="m 119.63784,125.8125 -6.255,-6.255 -2.13,2.115 8.385,8.385 18,-18 -2.115,-2.115 z"
       fill="url(#paint30_linear_1_5)"
       id="path31"
       style="fill:url(#paint30_linear_1_5)" />
  </g>
  <g
     inkscape:groupmode="layer"
     id="***selectionmode-checkbox-unchecked"
     inkscape:label="***selectionmode-checkbox-unchecked">
    <rect
       style="fill:none;stroke-width:1.10077"
       id="rect123-3-6-7-5-6-2-9-1-2"
       width="40"
       height="40"
       x="54.061573"
       y="100"
       inkscape:label="empty_background" />
    <path
       d="m 88.061573,102 h -28 c -2.2091,0 -4,1.791 -4,4 v 28 c 0,2.209 1.7909,4 4,4 h 28 c 2.2091,0 4,-1.791 4,-4 v -28 c 0,-2.209 -1.7909,-4 -4,-4 z"
       fill="url(#paint31_linear_1_5)"
       id="path32"
       style="fill:url(#paint31_linear_1_5)" />
  </g>
  <g
     inkscape:groupmode="layer"
     id="**scale-vert-marks-after-slider-disabled"
     inkscape:label="**scale-vert-marks-after-slider-disabled">
    <rect
       style="fill:none;stroke-width:1.04573"
       id="rect123-3-6-7-5-6-2-9-1-2-7"
       width="38"
       height="38"
       x="143.953"
       y="60"
       inkscape:label="empty_background" />
    <path
       d="m 173.17372,79 -6.351,6.3512 c -1.257,1.2561 -2.857,2.1116 -4.599,2.4581 -1.743,0.3466 -3.549,0.1687 -5.19,-0.5111 -1.641,-0.6798 -3.044,-1.831 -4.031,-3.3081 -0.987,-1.4771 -1.513,-3.2136 -1.513,-4.9901 0,-1.7764 0.526,-3.513 1.513,-4.9901 0.987,-1.477 2.39,-2.6283 4.031,-3.3081 1.641,-0.6798 3.447,-0.8577 5.19,-0.5111 1.742,0.3466 3.342,1.202 4.599,2.4581 z"
       fill="url(#paint32_linear_1_5)"
       stroke="url(#paint33_linear_1_5)"
       stroke-width="6"
       stroke-linecap="round"
       id="path34"
       style="display:inline;fill:url(#paint32_linear_1_5);stroke:url(#paint33_linear_1_5)" />
  </g>
  <g
     inkscape:groupmode="layer"
     id="**scale-vert-marks-before-slider-disabled"
     inkscape:label="**scale-vert-marks-before-slider-disabled">
    <rect
       style="fill:none;stroke-width:1.04573"
       id="rect123-3-6-7-5-6-2-9-1-2-7-0"
       width="38"
       height="38"
       x="98.66436"
       y="60"
       inkscape:label="empty_background" />
    <path
       d="m 107.44365,79 6.351,-6.3512 c 1.257,-1.2561 2.857,-2.1116 4.599,-2.4581 1.743,-0.3466 3.549,-0.1687 5.19,0.5111 1.641,0.6798 3.044,1.831 4.031,3.3081 0.987,1.4771 1.513,3.2136 1.513,4.9901 0,1.7764 -0.526,3.513 -1.513,4.9901 -0.987,1.477 -2.39,2.6283 -4.031,3.3081 -1.641,0.6798 -3.447,0.8577 -5.19,0.5111 -1.742,-0.3466 -3.342,-1.202 -4.599,-2.4581 z"
       fill="url(#paint36_linear_1_5)"
       stroke="url(#paint37_linear_1_5)"
       stroke-width="6"
       stroke-linecap="round"
       id="path37"
       style="display:inline;fill:url(#paint36_linear_1_5);stroke:url(#paint37_linear_1_5)" />
  </g>
  <g
     inkscape:groupmode="layer"
     id="**scale-horz-marks-after-slider-disabled"
     inkscape:label="**scale-horz-marks-after-slider-disabled">
    <rect
       style="fill:none;stroke-width:1.04573"
       id="rect123-3-6-7-5-6-2-9-1-2-7-0-9"
       width="38"
       height="38"
       x="58.437164"
       y="60"
       inkscape:label="empty_background" />
    <path
       d="m 77.437164,89.22083 6.3512,-6.3512 c 1.2561,-1.2561 2.1116,-2.8565 2.4581,-4.5989 0.3466,-1.7423 0.1687,-3.5482 -0.5111,-5.1895 -0.6798,-1.6412 -1.831,-3.044 -3.3081,-4.0309 -1.4771,-0.987 -3.2136,-1.5138 -4.9901,-1.5138 -1.7764,0 -3.513,0.5268 -4.9901,1.5138 -1.477,0.9869 -2.6283,2.3897 -3.3081,4.0309 -0.6798,1.6413 -0.8577,3.4472 -0.5111,5.1895 0.3466,1.7424 1.202,3.3428 2.4581,4.5989 z"
       fill="url(#paint40_linear_1_5)"
       stroke="url(#paint41_linear_1_5)"
       stroke-width="6"
       stroke-linecap="round"
       id="path40"
       style="display:inline;fill:url(#paint40_linear_1_5);stroke:url(#paint41_linear_1_5)" />
  </g>
  <g
     inkscape:groupmode="layer"
     id="**scale-horz-marks-before-slider-disabled"
     inkscape:label="**scale-horz-marks-before-slider-disabled">
    <rect
       style="fill:none;stroke-width:1.04573"
       id="rect123-3-6-7-5-6-2-9-1-2-7-0-9-3"
       width="38"
       height="38"
       x="16.283215"
       y="59.536781"
       inkscape:label="empty_background" />
    <path
       d="m 35.283215,68.31595 6.3512,6.3512 c 1.2561,1.2561 2.1116,2.8565 2.4581,4.5989 0.3466,1.7423 0.1687,3.5482 -0.5111,5.1895 -0.6798,1.6412 -1.831,3.044 -3.3081,4.0309 -1.4771,0.987 -3.2136,1.5138 -4.9901,1.5138 -1.7764,0 -3.513,-0.5268 -4.9901,-1.5138 -1.477,-0.9869 -2.6283,-2.3897 -3.3081,-4.0309 -0.6798,-1.6413 -0.8577,-3.4472 -0.5111,-5.1895 0.3466,-1.7424 1.202,-3.3428 2.4581,-4.5989 z"
       fill="url(#paint44_linear_1_5)"
       stroke="url(#paint45_linear_1_5)"
       stroke-width="6"
       stroke-linecap="round"
       id="path43"
       style="display:inline;fill:url(#paint44_linear_1_5);stroke:url(#paint45_linear_1_5)" />
  </g>
  <g
     inkscape:groupmode="layer"
     id="**scale-vert-marks-after-slider"
     inkscape:label="**scale-vert-marks-after-slider">
    <rect
       style="fill:none;stroke-width:1.04573"
       id="rect123-3-6-7-5-6-2-9-1-2-7-0-9-3-6"
       width="38"
       height="38"
       x="146.54347"
       y="16"
       inkscape:label="empty_background" />
    <path
       d="m 175.76419,35 -6.351,6.3512 c -1.257,1.2561 -2.857,2.1116 -4.599,2.4581 -1.743,0.3466 -3.549,0.1687 -5.19,-0.5111 -1.641,-0.6798 -3.044,-1.831 -4.031,-3.3081 -0.987,-1.4771 -1.513,-3.2136 -1.513,-4.9901 0,-1.7764 0.526,-3.513 1.513,-4.9901 0.987,-1.477 2.39,-2.6283 4.031,-3.3081 1.641,-0.6798 3.447,-0.8577 5.19,-0.5111 1.742,0.3466 3.342,1.202 4.599,2.4581 z"
       fill="url(#paint48_linear_1_5)"
       stroke="url(#paint49_linear_1_5)"
       stroke-width="6"
       stroke-linecap="round"
       id="path46"
       style="display:inline;fill:url(#paint48_linear_1_5);stroke:url(#paint49_linear_1_5)" />
  </g>
  <g
     inkscape:groupmode="layer"
     id="**scale-vert-marks-before-slider"
     inkscape:label="**scale-vert-marks-before-slider">
    <rect
       style="fill:none;stroke-width:1.04573"
       id="rect123-3-6-7-5-6-2-9-1-2-7-0-9-3-6-0"
       width="38"
       height="38"
       x="100.50244"
       y="16"
       inkscape:label="empty_background" />
    <path
       d="m 109.28173,35 6.351,-6.3512 c 1.257,-1.2561 2.857,-2.1116 4.599,-2.4581 1.743,-0.3466 3.549,-0.1687 5.19,0.5111 1.641,0.6798 3.044,1.831 4.031,3.3081 0.987,1.4771 1.513,3.2136 1.513,4.9901 0,1.7764 -0.526,3.513 -1.513,4.9901 -0.987,1.477 -2.39,2.6283 -4.031,3.3081 -1.641,0.6798 -3.447,0.8577 -5.19,0.5111 -1.742,-0.3466 -3.342,-1.202 -4.599,-2.4581 z"
       fill="url(#paint50_linear_1_5)"
       stroke="url(#paint51_linear_1_5)"
       stroke-width="6"
       stroke-linecap="round"
       id="path48"
       style="display:inline;fill:url(#paint50_linear_1_5);stroke:url(#paint51_linear_1_5)" />
  </g>
  <g
     inkscape:groupmode="layer"
     id="**scale-horz-marks-after-slider"
     inkscape:label="**scale-horz-marks-after-slider">
    <rect
       style="fill:none;stroke-width:1.04573"
       id="rect123-3-6-7-5-6-2-9-1-2-7-0-9-3-6-0-6"
       width="38"
       height="38"
       x="58.081287"
       y="16"
       inkscape:label="empty_background" />
    <path
       d="m 77.081287,45.22083 6.3512,-6.3512 c 1.2561,-1.2561 2.1116,-2.8565 2.4581,-4.5989 0.3466,-1.7423 0.1687,-3.5482 -0.5111,-5.1895 -0.6798,-1.6412 -1.831,-3.044 -3.3081,-4.0309 -1.4771,-0.987 -3.2136,-1.5138 -4.9901,-1.5138 -1.7764,0 -3.513,0.5268 -4.9901,1.5138 -1.477,0.9869 -2.6283,2.3897 -3.3081,4.0309 -0.6798,1.6413 -0.8577,3.4472 -0.5111,5.1895 0.3466,1.7424 1.202,3.3428 2.4581,4.5989 z"
       fill="url(#paint52_linear_1_5)"
       stroke="url(#paint53_linear_1_5)"
       stroke-width="6"
       stroke-linecap="round"
       id="path50"
       style="fill:url(#paint52_linear_1_5);fill-rule:nonzero;stroke:url(#paint53_linear_1_5)" />
  </g>
  <g
     inkscape:groupmode="layer"
     id="**scale-horz-marks-before-slider"
     inkscape:label="**scale-horz-marks-before-slider">
    <rect
       style="fill:none;stroke-width:1.04573"
       id="rect123-3-6-7-5-6-2-9-1-2-7-0-9-3-6-0-6-2"
       width="38"
       height="38"
       x="17.414351"
       y="16"
       inkscape:label="empty_background" />
    <path
       d="m 36.414351,24.77917 6.3512,6.3512 c 1.2561,1.2561 2.1116,2.8566 2.4581,4.5989 0.3466,1.7423 0.1687,3.5483 -0.5111,5.1895 -0.6798,1.6412 -1.831,3.044 -3.3081,4.0309 -1.4771,0.987 -3.2136,1.5138 -4.9901,1.5138 -1.7764,0 -3.513,-0.5268 -4.9901,-1.5138 -1.477,-0.9869 -2.6283,-2.3897 -3.3081,-4.0309 -0.6798,-1.6412 -0.8577,-3.4472 -0.5111,-5.1895 0.3466,-1.7423 1.202,-3.3428 2.4581,-4.5989 z"
       fill="url(#paint54_linear_1_5)"
       stroke="url(#paint55_linear_1_5)"
       stroke-width="6"
       stroke-linecap="round"
       id="path52"
       style="display:inline;fill:url(#paint54_linear_1_5);stroke:url(#paint55_linear_1_5)" />
  </g>
</svg>
