<?xml version="1.0" encoding="UTF-8" standalone="no"?>
<svg
   width="340"
   height="500"
   viewBox="0 0 340 500"
   fill="none"
   version="1.1"
   id="svg113"
   sodipodi:docname="assets-Dark.svg"
   inkscape:version="1.3.2 (091e20ef0f, 2023-11-25)"
   xmlns:inkscape="http://www.inkscape.org/namespaces/inkscape"
   xmlns:sodipodi="http://sodipodi.sourceforge.net/DTD/sodipodi-0.dtd"
   xmlns="http://www.w3.org/2000/svg"
   xmlns:svg="http://www.w3.org/2000/svg">
  <sodipodi:namedview
     id="namedview113"
     pagecolor="**base01**"
     bordercolor="**base07**"
     borderopacity="0.25"
     inkscape:showpageshadow="2"
     inkscape:pageopacity="0.0"
     inkscape:pagecheckerboard="0"
     inkscape:deskcolor="**base02**"
     inkscape:zoom="2.0597352"
     inkscape:cx="71.368396"
     inkscape:cy="258.04287"
     inkscape:window-width="1499"
     inkscape:window-height="1416"
     inkscape:window-x="0"
     inkscape:window-y="0"
     inkscape:window-maximized="1"
     inkscape:current-layer="**entry-active" />
  <defs
     id="defs113">
    <linearGradient
       id="paint0_linear_1_4"
       x1="152"
       y1="388"
       x2="153"
       y2="388"
       gradientUnits="userSpaceOnUse">
      <stop
         offset="1"
         stop-color="**accent01**"
         id="stop68" />
    </linearGradient>
    <linearGradient
       id="paint1_linear_1_4"
       x1="292"
       y1="80"
       x2="244"
       y2="80"
       gradientUnits="userSpaceOnUse">
      <stop
         offset="1"
         stop-color="**accent01**"
         id="stop69" />
    </linearGradient>
    <linearGradient
       id="paint2_linear_1_4"
       x1="292"
       y1="108"
       x2="244"
       y2="108"
       gradientUnits="userSpaceOnUse">
      <stop
         offset="1"
         stop-color="**accent01**"
         id="stop70" />
    </linearGradient>
    <linearGradient
       id="paint3_linear_1_4"
       x1="244"
       y1="80"
       x2="292"
       y2="80"
       gradientUnits="userSpaceOnUse"
       gradientTransform="translate(-155,-40)">
      <stop
         offset="1"
         stop-color="**accent01**"
         id="stop71" />
    </linearGradient>
    <linearGradient
       id="paint4_linear_1_4"
       x1="244"
       y1="108"
       x2="292"
       y2="108"
       gradientUnits="userSpaceOnUse">
      <stop
         offset="1"
         stop-color="**accent01**"
         id="stop72" />
    </linearGradient>
    <linearGradient
       id="paint5_linear_1_4"
       x1="217"
       y1="314"
       x2="217"
       y2="326"
       gradientUnits="userSpaceOnUse"
       gradientTransform="translate(-2)">
      <stop
         offset="1"
         stop-color="**accent01**"
         id="stop73" />
    </linearGradient>
    <linearGradient
       id="paint6_linear_1_4"
       x1="140"
       y1="276"
       x2="164"
       y2="276"
       gradientUnits="userSpaceOnUse">
      <stop
         offset="1"
         stop-color="**accent01**"
         id="stop74" />
    </linearGradient>
    <linearGradient
       id="paint7_linear_1_4"
       x1="146"
       y1="282"
       x2="158"
       y2="282"
       gradientUnits="userSpaceOnUse">
      <stop
         offset="1"
         stop-color="**accent01**"
         id="stop75" />
    </linearGradient>
    <linearGradient
       id="paint8_linear_1_4"
       x1="140"
       y1="308"
       x2="164"
       y2="308"
       gradientUnits="userSpaceOnUse">
      <stop
         offset="1"
         stop-color="**accent01**"
         id="stop76" />
    </linearGradient>
    <linearGradient
       id="paint9_linear_1_4"
       x1="146"
       y1="314"
       x2="158"
       y2="314"
       gradientUnits="userSpaceOnUse">
      <stop
         offset="1"
         stop-color="**accent01**"
         id="stop77" />
    </linearGradient>
    <linearGradient
       id="paint10_linear_1_4"
       x1="146"
       y1="250"
       x2="158"
       y2="250"
       gradientUnits="userSpaceOnUse">
      <stop
         offset="1"
         stop-color="**accent01**"
         id="stop78" />
    </linearGradient>
    <linearGradient
       id="paint11_linear_1_4"
       x1="178"
       y1="319"
       x2="190"
       y2="319"
       gradientUnits="userSpaceOnUse"
       gradientTransform="translate(-1)">
      <stop
         offset="1"
         stop-color="**accent01**"
         id="stop79" />
    </linearGradient>
    <linearGradient
       id="paint12_linear_1_4"
       x1="46"
       y1="410"
       x2="66"
       y2="410"
       gradientUnits="userSpaceOnUse">
      <stop
         offset="1"
         stop-color="**accent01**"
         id="stop80" />
    </linearGradient>
    <linearGradient
       id="paint13_linear_1_4"
       x1="46"
       y1="466"
       x2="66"
       y2="466"
       gradientUnits="userSpaceOnUse">
      <stop
         offset="1"
         stop-color="**accent01**"
         id="stop81" />
    </linearGradient>
    <linearGradient
       id="paint14_linear_1_4"
       x1="46"
       y1="438"
       x2="66"
       y2="438"
       gradientUnits="userSpaceOnUse">
      <stop
         offset="1"
         stop-color="**accent01**"
         id="stop82" />
    </linearGradient>
    <linearGradient
       id="paint15_linear_1_4"
       x1="46"
       y1="382"
       x2="66"
       y2="382"
       gradientUnits="userSpaceOnUse">
      <stop
         offset="1"
         stop-color="**accent01**"
         id="stop83" />
    </linearGradient>
    <linearGradient
       id="paint16_linear_1_4"
       x1="46"
       y1="298"
       x2="66"
       y2="298"
       gradientUnits="userSpaceOnUse">
      <stop
         offset="1"
         stop-color="**accent01**"
         id="stop84" />
    </linearGradient>
    <linearGradient
       id="paint17_linear_1_4"
       x1="46"
       y1="352"
       x2="66"
       y2="352"
       gradientUnits="userSpaceOnUse">
      <stop
         offset="1"
         stop-color="**accent01**"
         id="stop85" />
    </linearGradient>
    <linearGradient
       id="paint18_linear_1_4"
       x1="46"
       y1="324"
       x2="66"
       y2="324"
       gradientUnits="userSpaceOnUse">
      <stop
         offset="1"
         stop-color="**accent01**"
         id="stop86" />
    </linearGradient>
    <linearGradient
       id="paint19_linear_1_4"
       x1="46"
       y1="270"
       x2="66"
       y2="270"
       gradientUnits="userSpaceOnUse"
       gradientTransform="translate(0,1)">
      <stop
         offset="1"
         stop-color="**accent01**"
         id="stop87" />
    </linearGradient>
    <linearGradient
       id="paint20_linear_1_4"
       x1="164"
       y1="388"
       x2="168"
       y2="388"
       gradientUnits="userSpaceOnUse">
      <stop
         offset="1"
         stop-color="**accent01**"
         id="stop88" />
    </linearGradient>
    <linearGradient
       id="paint21_linear_1_4"
       x1="104"
       y1="412"
       x2="120"
       y2="412"
       gradientUnits="userSpaceOnUse">
      <stop
         offset="1"
         stop-color="**accent01**"
         id="stop89" />
    </linearGradient>
    <linearGradient
       id="paint22_linear_1_4"
       x1="104"
       y1="384"
       x2="120"
       y2="384"
       gradientUnits="userSpaceOnUse">
      <stop
         offset="1"
         stop-color="**accent01**"
         id="stop90" />
    </linearGradient>
    <linearGradient
       id="paint23_linear_1_4"
       x1="104"
       y1="300"
       x2="120"
       y2="300"
       gradientUnits="userSpaceOnUse">
      <stop
         offset="1"
         stop-color="**accent01**"
         id="stop91" />
    </linearGradient>
    <linearGradient
       id="paint24_linear_1_4"
       x1="104"
       y1="272"
       x2="120"
       y2="272"
       gradientUnits="userSpaceOnUse">
      <stop
         offset="1"
         stop-color="**accent01**"
         id="stop92" />
    </linearGradient>
    <linearGradient
       id="paint25_linear_1_4"
       x1="80"
       y1="412"
       x2="96"
       y2="412"
       gradientUnits="userSpaceOnUse">
      <stop
         offset="1"
         stop-color="**accent01**"
         id="stop93" />
    </linearGradient>
    <linearGradient
       id="paint26_linear_1_4"
       x1="80"
       y1="384"
       x2="96"
       y2="384"
       gradientUnits="userSpaceOnUse">
      <stop
         offset="1"
         stop-color="**accent01**"
         id="stop94" />
    </linearGradient>
    <linearGradient
       id="paint27_linear_1_4"
       x1="80"
       y1="300"
       x2="96"
       y2="300"
       gradientUnits="userSpaceOnUse">
      <stop
         offset="1"
         stop-color="**accent01**"
         id="stop95" />
    </linearGradient>
    <linearGradient
       id="paint28_linear_1_4"
       x1="80"
       y1="272"
       x2="96"
       y2="272"
       gradientUnits="userSpaceOnUse">
      <stop
         offset="1"
         stop-color="**accent01**"
         id="stop96" />
    </linearGradient>
    <linearGradient
       id="paint29_linear_1_4"
       x1="140"
       y1="80"
       x2="188"
       y2="80"
       gradientUnits="userSpaceOnUse">
      <stop
         offset="1"
         stop-color="**accent01**"
         id="stop97" />
    </linearGradient>
    <linearGradient
       id="paint30_linear_1_4"
       x1="192"
       y1="80"
       x2="240"
       y2="80"
       gradientUnits="userSpaceOnUse">
      <stop
         offset="1"
         stop-color="**accent01**"
         id="stop98" />
    </linearGradient>
    <linearGradient
       id="paint31_linear_1_4"
       x1="240"
       y1="80"
       x2="192"
       y2="80"
       gradientUnits="userSpaceOnUse">
      <stop
         offset="1"
         stop-color="**accent01**"
         id="stop99" />
    </linearGradient>
    <linearGradient
       id="paint32_linear_1_4"
       x1="18"
       y1="410"
       x2="38"
       y2="410"
       gradientUnits="userSpaceOnUse"
       gradientTransform="translate(1,1)">
      <stop
         offset="1"
         stop-color="**accent01**"
         id="stop100" />
    </linearGradient>
    <linearGradient
       id="paint33_linear_1_4"
       x1="18"
       y1="466"
       x2="38"
       y2="466"
       gradientUnits="userSpaceOnUse">
      <stop
         offset="1"
         stop-color="**accent01**"
         id="stop101" />
    </linearGradient>
    <linearGradient
       id="paint34_linear_1_4"
       x1="18"
       y1="438"
       x2="38"
       y2="438"
       gradientUnits="userSpaceOnUse"
       gradientTransform="translate(1,1)">
      <stop
         offset="1"
         stop-color="**accent01**"
         id="stop102" />
    </linearGradient>
    <linearGradient
       id="paint35_linear_1_4"
       x1="18"
       y1="382"
       x2="38"
       y2="382"
       gradientUnits="userSpaceOnUse"
       gradientTransform="translate(1,1)">
      <stop
         offset="1"
         stop-color="**accent01**"
         id="stop103" />
    </linearGradient>
    <linearGradient
       id="paint36_linear_1_4"
       x1="18"
       y1="298"
       x2="38"
       y2="298"
       gradientUnits="userSpaceOnUse">
      <stop
         offset="1"
         stop-color="**accent01**"
         id="stop104" />
    </linearGradient>
    <linearGradient
       id="paint37_linear_1_4"
       x1="18"
       y1="352"
       x2="38"
       y2="352"
       gradientUnits="userSpaceOnUse">
      <stop
         offset="1"
         stop-color="**accent01**"
         id="stop105" />
    </linearGradient>
    <linearGradient
       id="paint38_linear_1_4"
       x1="18"
       y1="324"
       x2="38"
       y2="324"
       gradientUnits="userSpaceOnUse">
      <stop
         offset="1"
         stop-color="**accent01**"
         id="stop106" />
    </linearGradient>
    <linearGradient
       id="paint39_linear_1_4"
       x1="18"
       y1="270"
       x2="38"
       y2="270"
       gradientUnits="userSpaceOnUse"
       gradientTransform="translate(-6.4246e-7,0.99999962)">
      <stop
         offset="1"
         stop-color="**accent01**"
         id="stop107" />
    </linearGradient>
    <linearGradient
       id="paint40_linear_1_4"
       x1="18"
       y1="215"
       x2="38"
       y2="215"
       gradientUnits="userSpaceOnUse">
      <stop
         offset="1"
         stop-color="**accent01**"
         id="stop108" />
    </linearGradient>
    <linearGradient
       id="paint41_linear_1_4"
       x1="18"
       y1="241"
       x2="38"
       y2="241"
       gradientUnits="userSpaceOnUse">
      <stop
         offset="1"
         stop-color="**accent01**"
         id="stop109" />
    </linearGradient>
    <linearGradient
       id="paint42_linear_1_4"
       x1="46"
       y1="241"
       x2="66"
       y2="241"
       gradientUnits="userSpaceOnUse">
      <stop
         offset="1"
         stop-color="**accent01**"
         id="stop110" />
    </linearGradient>
    <linearGradient
       id="paint43_linear_1_4"
       x1="80"
       y1="220"
       x2="96"
       y2="220"
       gradientUnits="userSpaceOnUse">
      <stop
         offset="1"
         stop-color="**accent01**"
         id="stop111" />
    </linearGradient>
    <linearGradient
       id="paint44_linear_1_4"
       x1="80"
       y1="244"
       x2="96"
       y2="244"
       gradientUnits="userSpaceOnUse">
      <stop
         offset="1"
         stop-color="**accent01**"
         id="stop112" />
    </linearGradient>
    <linearGradient
       id="paint45_linear_1_4"
       x1="104"
       y1="244"
       x2="120"
       y2="244"
       gradientUnits="userSpaceOnUse">
      <stop
         offset="1"
         stop-color="**accent01**"
         id="stop113" />
    </linearGradient>
    <clipPath
       id="clip0_1_4">
      <rect
         width="340"
         height="500"
         fill="white"
         id="rect113" />
    </clipPath>
    <mask
       id="mask0_12_3"
       maskUnits="userSpaceOnUse"
       x="242"
       y="78"
       width="26"
       height="16">
      <path
         d="m 242,78 h 26 v 16 h -26 z"
         fill="**base01**"
         id="path3" />
    </mask>
    <linearGradient
       id="paint1_linear_12_3"
       x1="292"
       y1="80"
       x2="244"
       y2="80"
       gradientUnits="userSpaceOnUse">
      <stop
         offset="1"
         stop-color="**accent01**"
         id="stop69-3" />
    </linearGradient>
    <mask
       id="mask1_12_3"
       maskUnits="userSpaceOnUse"
       x="242"
       y="94"
       width="26"
       height="16">
      <path
         d="m 242,110 h 26 V 94 h -26 z"
         fill="**base01**"
         id="path6" />
    </mask>
    <linearGradient
       id="paint2_linear_12_3"
       x1="292"
       y1="108"
       x2="244"
       y2="108"
       gradientUnits="userSpaceOnUse">
      <stop
         offset="1"
         stop-color="**accent01**"
         id="stop70-5" />
    </linearGradient>
    <mask
       id="mask2_12_3"
       maskUnits="userSpaceOnUse"
       x="268"
       y="78"
       width="26"
       height="16">
      <path
         d="m 294,78 h -26 v 16 h 26 z"
         fill="**base01**"
         id="path9" />
    </mask>
    <linearGradient
       id="paint3_linear_12_3"
       x1="244"
       y1="80"
       x2="292"
       y2="80"
       gradientUnits="userSpaceOnUse">
      <stop
         offset="1"
         stop-color="**accent01**"
         id="stop71-6" />
    </linearGradient>
    <mask
       id="mask3_12_3"
       maskUnits="userSpaceOnUse"
       x="268"
       y="94"
       width="26"
       height="16">
      <path
         d="M 294,110 H 268 V 94 h 26 z"
         fill="**base01**"
         id="path12" />
    </mask>
    <linearGradient
       id="paint4_linear_12_3"
       x1="244"
       y1="108"
       x2="292"
       y2="108"
       gradientUnits="userSpaceOnUse">
      <stop
         offset="1"
         stop-color="**accent01**"
         id="stop72-2" />
    </linearGradient>
    <mask
       id="mask3_12_3-2"
       maskUnits="userSpaceOnUse"
       x="268"
       y="94"
       width="26"
       height="16">
      <path
         d="M 294,110 H 268 V 94 h 26 z"
         fill="**base01**"
         id="path12-7" />
    </mask>
    <mask
       id="mask1_12_3-9"
       maskUnits="userSpaceOnUse"
       x="242"
       y="94"
       width="26"
       height="16">
      <path
         d="m 242,110 h 26 V 94 h -26 z"
         fill="**base01**"
         id="path6-3" />
    </mask>
    <mask
       id="mask2_12_3-0"
       maskUnits="userSpaceOnUse"
       x="268"
       y="78"
       width="26"
       height="16">
      <path
         d="m 294,78 h -26 v 16 h 26 z"
         fill="**base01**"
         id="path9-6" />
    </mask>
    <mask
       id="mask4_12_3"
       maskUnits="userSpaceOnUse"
       x="216"
       y="12"
       width="28"
       height="132">
      <path
         d="m 244,12 h -28 v 132 h 28 z"
         fill="**base01**"
         id="path45" />
    </mask>
    <linearGradient
       id="paint30_linear_12_3"
       x1="192"
       y1="80"
       x2="240"
       y2="80"
       gradientUnits="userSpaceOnUse">
      <stop
         offset="1"
         stop-color="**accent01**"
         id="stop98-6" />
    </linearGradient>
    <mask
       id="mask5_12_3"
       maskUnits="userSpaceOnUse"
       x="188"
       y="12"
       width="28"
       height="132">
      <path
         d="m 188,12 h 28 v 132 h -28 z"
         fill="**base01**"
         id="path48" />
    </mask>
    <linearGradient
       id="paint31_linear_12_3"
       x1="240"
       y1="80"
       x2="192"
       y2="80"
       gradientUnits="userSpaceOnUse">
      <stop
         offset="1"
         stop-color="**accent01**"
         id="stop99-1" />
    </linearGradient>
    <mask
       id="mask4_12_3-8"
       maskUnits="userSpaceOnUse"
       x="216"
       y="12"
       width="28"
       height="132">
      <path
         d="m 244,12 h -28 v 132 h 28 z"
         fill="**base01**"
         id="path45-7" />
    </mask>
    <linearGradient
       id="paint30_linear_12_3-9"
       x1="192"
       y1="80"
       x2="240"
       y2="80"
       gradientUnits="userSpaceOnUse">
      <stop
         offset="1"
         stop-color="**accent01**"
         id="stop98-6-2" />
    </linearGradient>
    <mask
       id="mask5_12_3-0"
       maskUnits="userSpaceOnUse"
       x="188"
       y="12"
       width="28"
       height="132">
      <path
         d="m 188,12 h 28 v 132 h -28 z"
         fill="**base01**"
         id="path48-2" />
    </mask>
    <linearGradient
       id="paint31_linear_12_3-3"
       x1="240"
       y1="80"
       x2="192"
       y2="80"
       gradientUnits="userSpaceOnUse">
      <stop
         offset="1"
         stop-color="**accent01**"
         id="stop99-1-7" />
    </linearGradient>
  </defs>
  <g
     inkscape:groupmode="layer"
     id="layer2"
     inkscape:label="background">
    <rect
       style="display:inline;opacity:1;fill:**base06**;fill-opacity:1"
       id="rect1"
       width="339.96243"
       height="500.37973"
       x="-0.11927405"
       y="-0.21553031"
       inkscape:label="rect1" />
  </g>
  <g
     inkscape:groupmode="layer"
     id="**tab"
     inkscape:label="**tab">
    <path
       d="M153 388H152V389H153V388Z"
       fill="url(#paint0_linear_1_4)"
       id="path2" />
  </g>
  <g
     inkscape:groupmode="layer"
     id="**scale-vert-trough-active"
     inkscape:label="**scale-vert-trough-active">
    <rect
       style="display:inline;opacity:0;fill:**base07**"
       id="rect2-9-61"
       width="24"
       height="24"
       x="202"
       y="308" />
    <path
       d="m 215,326 v -12 h -2 v 12 z"
       fill="url(#paint5_linear_1_4)"
       id="path15"
       style="fill:url(#paint5_linear_1_4)" />
  </g>
  <g
     inkscape:groupmode="layer"
     id="**scale-slider-hover"
     inkscape:label="**scale-slider-hover">
    <path
       d="M152 294C155.314 294 158 291.314 158 288C158 284.686 155.314 282 152 282C148.686 282 146 284.686 146 288C146 291.314 148.686 294 152 294Z"
       fill="url(#paint7_linear_1_4)"
       id="path17" />
    <path
       d="M152 300C158.627 300 164 294.627 164 288C164 281.373 158.627 276 152 276C145.373 276 140 281.373 140 288C140 294.627 145.373 300 152 300Z"
       fill="url(#paint6_linear_1_4)"
       fill-opacity="0.08"
       id="path16" />
  </g>
  <g
     inkscape:groupmode="layer"
     id="**scale-slider-active"
     inkscape:label="**scale-slider-active"
     style="display:inline">
    <path
       d="m 152,332 c 6.627,0 12,-5.373 12,-12 0,-6.627 -5.373,-12 -12,-12 -6.627,0 -12,5.373 -12,12 0,6.627 5.373,12 12,12 z"
       fill="url(#paint8_linear_1_4)"
       fill-opacity="0.2"
       id="path18"
       style="display:inline" />
    <path
       d="m 152,326 c 3.314,0 6,-2.686 6,-6 0,-3.314 -2.686,-6 -6,-6 -3.314,0 -6,2.686 -6,6 0,3.314 2.686,6 6,6 z"
       fill="url(#paint9_linear_1_4)"
       id="path19"
       style="display:inline" />
  </g>
  <g
     inkscape:groupmode="layer"
     id="**scale-slider"
     inkscape:label="**scale-slider">
    <rect
       style="display:inline;opacity:0;fill:**base07**"
       id="rect2-9-62"
       width="24"
       height="24"
       x="140"
       y="244" />
    <path
       d="M152 262C155.314 262 158 259.314 158 256C158 252.686 155.314 250 152 250C148.686 250 146 252.686 146 256C146 259.314 148.686 262 152 262Z"
       fill="url(#paint10_linear_1_4)"
       id="path20" />
  </g>
  <g
     inkscape:groupmode="layer"
     id="**scale-horz-trough-active"
     inkscape:label="**scale-horz-trough-active"
     style="display:inline">
    <rect
       style="display:inline;opacity:0;fill:**base07**"
       id="rect2-9-0"
       width="24"
       height="24"
       x="171"
       y="308" />
    <path
       d="m 189,319 h -12 v 2 h 12 z"
       fill="url(#paint11_linear_1_4)"
       id="path21"
       style="display:inline;fill:url(#paint11_linear_1_4)" />
  </g>
  <g
     inkscape:groupmode="layer"
     id="**radio-mixed-hover"
     inkscape:label="**radio-mixed-hover"
     style="display:inline">
    <rect
       style="display:inline;opacity:0;fill:**base07**"
       id="rect2-9-6"
       width="24"
       height="24"
       x="44"
       y="408" />
    <path
       d="m 56,410 c -5.52,0 -10,4.48 -10,10 0,5.52 4.48,10 10,10 5.52,0 10,-4.48 10,-10 0,-5.52 -4.48,-10 -10,-10 z m -4.5,10 h 9 c 0.277,0 0.5,0.223 0.5,0.5 0,0.277 -0.223,0.5 -0.5,0.5 h -9 c -0.277,0 -0.5,-0.223 -0.5,-0.5 0,-0.277 0.223,-0.5 0.5,-0.5 z"
       fill="url(#paint12_linear_1_4)"
       id="path22"
       style="display:inline" />
    <path
       opacity="0.15"
       d="m 56,410 c -5.52,0 -10,4.48 -10,10 0,5.52 4.48,10 10,10 5.52,0 10,-4.48 10,-10 0,-5.52 -4.48,-10 -10,-10 z"
       fill="**base00**"
       id="path23"
       style="display:inline" />
  </g>
  <g
     inkscape:groupmode="layer"
     id="**radio-mixed-disabled"
     inkscape:label="**radio-mixed-disabled"
     style="display:inline">
    <rect
       style="display:inline;opacity:0;fill:**base07**"
       id="rect2-9-3"
       width="24"
       height="24"
       x="44"
       y="464" />
    <g
       opacity="0.35"
       id="g24"
       style="display:inline">
      <path
         d="m 56,466 c -5.52,0 -10,4.48 -10,10 0,5.52 4.48,10 10,10 5.52,0 10,-4.48 10,-10 0,-5.52 -4.48,-10 -10,-10 z m -4.5,10 h 9 c 0.277,0 0.5,0.223 0.5,0.5 0,0.277 -0.223,0.5 -0.5,0.5 h -9 c -0.277,0 -0.5,-0.223 -0.5,-0.5 0,-0.277 0.223,-0.5 0.5,-0.5 z"
         fill="url(#paint13_linear_1_4)"
         id="path24" />
    </g>
  </g>
  <g
     inkscape:groupmode="layer"
     id="**radio-mixed-active"
     inkscape:label="**radio-mixed-active"
     style="display:inline">
    <rect
       style="display:inline;opacity:0;fill:**base07**"
       id="rect2-9-9"
       width="24"
       height="24"
       x="44"
       y="436" />
    <path
       d="m 56,438 c -5.52,0 -10,4.48 -10,10 0,5.52 4.48,10 10,10 5.52,0 10,-4.48 10,-10 0,-5.52 -4.48,-10 -10,-10 z m -4.5,10 h 9 c 0.277,0 0.5,0.223 0.5,0.5 0,0.277 -0.223,0.5 -0.5,0.5 h -9 c -0.277,0 -0.5,-0.223 -0.5,-0.5 0,-0.277 0.223,-0.5 0.5,-0.5 z"
       fill="url(#paint14_linear_1_4)"
       id="path25"
       style="display:inline" />
    <path
       opacity="0.15"
       d="m 56,438 c -5.52,0 -10,4.48 -10,10 0,5.52 4.48,10 10,10 5.52,0 10,-4.48 10,-10 0,-5.52 -4.48,-10 -10,-10 z"
       fill="**base07**"
       id="path26"
       style="display:inline" />
  </g>
  <g
     inkscape:groupmode="layer"
     id="**radio-mixed"
     inkscape:label="**radio-mixed"
     style="display:inline">
    <rect
       style="display:inline;opacity:0;fill:**base07**"
       id="rect2-9-7-0"
       width="24"
       height="24"
       x="44"
       y="380" />
    <path
       d="m 56,382 c -5.52,0 -10,4.48 -10,10 0,5.52 4.48,10 10,10 5.52,0 10,-4.48 10,-10 0,-5.52 -4.48,-10 -10,-10 z m -4.5,10 h 9 c 0.277,0 0.5,0.223 0.5,0.5 0,0.277 -0.223,0.5 -0.5,0.5 h -9 c -0.277,0 -0.5,-0.223 -0.5,-0.5 0,-0.277 0.223,-0.5 0.5,-0.5 z"
       fill="url(#paint15_linear_1_4)"
       id="path27"
       style="display:inline" />
  </g>
  <g
     inkscape:groupmode="layer"
     id="**radio-checked-hover"
     inkscape:label="**radio-checked-hover"
     style="display:inline">
    <rect
       style="display:inline;opacity:0;fill:**base07**"
       id="rect2-9-7"
       width="24"
       height="24"
       x="44"
       y="296" />
    <path
       d="m 56,298 c -5.52,0 -10,4.48 -10,10 0,5.52 4.48,10 10,10 5.52,0 10,-4.48 10,-10 0,-5.52 -4.48,-10 -10,-10 z m 0,8 c 1.1046,0 2,0.895 2,2 0,1.105 -0.8954,2 -2,2 -1.1046,0 -2,-0.895 -2,-2 0,-1.105 0.8954,-2 2,-2 z"
       fill="url(#paint16_linear_1_4)"
       id="path28"
       style="display:inline" />
    <path
       opacity="0.15"
       d="m 56,298 c -5.52,0 -10,4.48 -10,10 0,5.52 4.48,10 10,10 5.52,0 10,-4.48 10,-10 0,-5.52 -4.48,-10 -10,-10 z"
       fill="**base00**"
       id="path29"
       style="display:inline" />
  </g>
  <g
     inkscape:groupmode="layer"
     id="**radio-checked-disabled"
     inkscape:label="**radio-checked-disabled"
     style="display:inline">
    <rect
       style="display:inline;opacity:0;fill:**base07**"
       id="rect2-1-2"
       width="24"
       height="24"
       x="44"
       y="350" />
    <g
       opacity="0.35"
       id="g30"
       style="display:inline">
      <path
         d="m 56,352 c -5.52,0 -10,4.48 -10,10 0,5.52 4.48,10 10,10 5.52,0 10,-4.48 10,-10 0,-5.52 -4.48,-10 -10,-10 z m 0,8 c 1.1046,0 2,0.895 2,2 0,1.105 -0.8954,2 -2,2 -1.1046,0 -2,-0.895 -2,-2 0,-1.105 0.8954,-2 2,-2 z"
         fill="url(#paint17_linear_1_4)"
         id="path30" />
    </g>
  </g>
  <g
     inkscape:groupmode="layer"
     id="**radio-checked-active"
     inkscape:label="**radio-checked-active"
     style="display:inline">
    <rect
       style="opacity:0;fill:**base07**"
       id="rect2-1"
       width="24"
       height="24"
       x="44"
       y="322" />
    <path
       d="m 56,324 c -5.52,0 -10,4.48 -10,10 0,5.52 4.48,10 10,10 5.52,0 10,-4.48 10,-10 0,-5.52 -4.48,-10 -10,-10 z m 0,8 c 1.1046,0 2,0.895 2,2 0,1.105 -0.8954,2 -2,2 -1.1046,0 -2,-0.895 -2,-2 0,-1.105 0.8954,-2 2,-2 z"
       fill="url(#paint18_linear_1_4)"
       id="path31"
       style="display:inline" />
    <path
       opacity="0.15"
       d="m 56,324 c -5.52,0 -10,4.48 -10,10 0,5.52 4.48,10 10,10 5.52,0 10,-4.48 10,-10 0,-5.52 -4.48,-10 -10,-10 z"
       fill="**base07**"
       id="path32"
       style="display:inline" />
  </g>
  <g
     inkscape:groupmode="layer"
     id="**radio-checked"
     inkscape:label="**radio-checked"
     style="display:inline">
    <rect
       style="opacity:0;fill:**base07**"
       id="rect2-9"
       width="24"
       height="24"
       x="44"
       y="269" />
    <path
       d="m 56,271 c -5.52,0 -10,4.48 -10,10 0,5.52 4.48,10 10,10 5.52,0 10,-4.48 10,-10 0,-5.52 -4.48,-10 -10,-10 z m 0,8 c 1.1046,0 2,0.895 2,2 0,1.105 -0.8954,2 -2,2 -1.1046,0 -2,-0.895 -2,-2 0,-1.105 0.8954,-2 2,-2 z"
       fill="url(#paint19_linear_1_4)"
       id="path33"
       style="display:inline;fill:url(#paint19_linear_1_4)" />
  </g>
  <g
     inkscape:groupmode="layer"
     id="**progressbar-progress"
     inkscape:label="**progressbar-progress"
     style="display:inline">
    <path
       d="m 168,388 h -4 v 4 h 4 z"
       fill="url(#paint20_linear_1_4)"
       id="path34" />
  </g>
  <g
     inkscape:groupmode="layer"
     id="**menu-radio-mixed-disabled"
     inkscape:label="**menu-radio-mixed-disabled"
     style="display:inline">
    <path
       opacity="0.35"
       d="m 112,412 c -2.122,0 -4.157,0.843 -5.657,2.343 -1.5,1.5 -2.343,3.535 -2.343,5.657 0,2.122 0.843,4.157 2.343,5.657 1.5,1.5 3.535,2.343 5.657,2.343 2.122,0 4.157,-0.843 5.657,-2.343 1.5,-1.5 2.343,-3.535 2.343,-5.657 0,-2.122 -0.843,-4.157 -2.343,-5.657 -1.5,-1.5 -3.535,-2.343 -5.657,-2.343 z m -3.5,8 h 7 c 0.277,0 0.5,0.223 0.5,0.5 0,0.277 -0.223,0.5 -0.5,0.5 h -7 c -0.277,0 -0.5,-0.223 -0.5,-0.5 0,-0.277 0.223,-0.5 0.5,-0.5 z"
       fill="url(#paint21_linear_1_4)"
       id="path35" />
  </g>
  <g
     inkscape:groupmode="layer"
     id="**menu-radio-mixed"
     inkscape:label="**menu-radio-mixed"
     style="display:inline">
    <path
       d="m 112,384 c -2.122,0 -4.157,0.843 -5.657,2.343 -1.5,1.5 -2.343,3.535 -2.343,5.657 0,2.122 0.843,4.157 2.343,5.657 1.5,1.5 3.535,2.343 5.657,2.343 2.122,0 4.157,-0.843 5.657,-2.343 1.5,-1.5 2.343,-3.535 2.343,-5.657 0,-2.122 -0.843,-4.157 -2.343,-5.657 -1.5,-1.5 -3.535,-2.343 -5.657,-2.343 z m -3.5,8 h 7 c 0.277,0 0.5,0.223 0.5,0.5 0,0.277 -0.223,0.5 -0.5,0.5 h -7 c -0.277,0 -0.5,-0.223 -0.5,-0.5 0,-0.277 0.223,-0.5 0.5,-0.5 z"
       fill="url(#paint22_linear_1_4)"
       id="path36" />
  </g>
  <g
     inkscape:groupmode="layer"
     id="**menu-radio-checked-disabled"
     inkscape:label="**menu-radio-checked-disabled"
     style="display:inline">
    <path
       opacity="0.35"
       d="m 112,300 c -2.122,0 -4.157,0.843 -5.657,2.343 -1.5,1.5 -2.343,3.535 -2.343,5.657 0,2.122 0.843,4.157 2.343,5.657 1.5,1.5 3.535,2.343 5.657,2.343 2.122,0 4.157,-0.843 5.657,-2.343 1.5,-1.5 2.343,-3.535 2.343,-5.657 0,-2.122 -0.843,-4.157 -2.343,-5.657 -1.5,-1.5 -3.535,-2.343 -5.657,-2.343 z m 0,6 c 1.105,0 2,0.895 2,2 0,1.105 -0.895,2 -2,2 -1.105,0 -2,-0.895 -2,-2 0,-1.105 0.895,-2 2,-2 z"
       fill="url(#paint23_linear_1_4)"
       id="path37" />
  </g>
  <g
     inkscape:groupmode="layer"
     id="**menu-radio-checked"
     inkscape:label="**menu-radio-checked"
     style="display:inline">
    <path
       d="m 112,272 c -2.122,0 -4.157,0.843 -5.657,2.343 -1.5,1.5 -2.343,3.535 -2.343,5.657 0,2.122 0.843,4.157 2.343,5.657 1.5,1.5 3.535,2.343 5.657,2.343 2.122,0 4.157,-0.843 5.657,-2.343 1.5,-1.5 2.343,-3.535 2.343,-5.657 0,-2.122 -0.843,-4.157 -2.343,-5.657 -1.5,-1.5 -3.535,-2.343 -5.657,-2.343 z m 0,6 c 1.105,0 2,0.895 2,2 0,1.105 -0.895,2 -2,2 -1.105,0 -2,-0.895 -2,-2 0,-1.105 0.895,-2 2,-2 z"
       fill="url(#paint24_linear_1_4)"
       id="path38" />
  </g>
  <g
     inkscape:groupmode="layer"
     id="**menu-checkbox-mixed-disabled"
     inkscape:label="**menu-checkbox-mixed-disabled">
    <path
       opacity="0.35"
       d="M88 412C85.8783 412 83.8434 412.843 82.3431 414.343C80.8429 415.843 80 417.878 80 420C80 422.122 80.8429 424.157 82.3431 425.657C83.8434 427.157 85.8783 428 88 428C90.1217 428 92.1566 427.157 93.6569 425.657C95.1571 424.157 96 422.122 96 420C96 417.878 95.1571 415.843 93.6569 414.343C92.1566 412.843 90.1217 412 88 412ZM84.5 420H91.5C91.777 420 92 420.223 92 420.5C92 420.777 91.777 421 91.5 421H84.5C84.223 421 84 420.777 84 420.5C84 420.223 84.223 420 84.5 420Z"
       fill="url(#paint25_linear_1_4)"
       id="path39" />
  </g>
  <g
     inkscape:groupmode="layer"
     id="**menu-checkbox-mixed"
     inkscape:label="**menu-checkbox-mixed"
     style="display:inline">
    <path
       d="m 88,384 c -2.1217,0 -4.1566,0.843 -5.6569,2.343 C 80.8429,387.843 80,389.878 80,392 c 0,2.122 0.8429,4.157 2.3431,5.657 1.5003,1.5 3.5352,2.343 5.6569,2.343 2.1217,0 4.1566,-0.843 5.6569,-2.343 C 95.1571,396.157 96,394.122 96,392 96,389.878 95.1571,387.843 93.6569,386.343 92.1566,384.843 90.1217,384 88,384 Z m -3.5,8 h 7 c 0.277,0 0.5,0.223 0.5,0.5 0,0.277 -0.223,0.5 -0.5,0.5 h -7 c -0.277,0 -0.5,-0.223 -0.5,-0.5 0,-0.277 0.223,-0.5 0.5,-0.5 z"
       fill="url(#paint26_linear_1_4)"
       id="path40" />
  </g>
  <g
     inkscape:groupmode="layer"
     id="**menu-checkbox-checked-disabled"
     inkscape:label="**menu-checkbox-checked-disabled"
     style="display:inline">
    <path
       opacity="0.35"
       d="m 88,300 c -2.1217,0 -4.1566,0.843 -5.6569,2.343 C 80.8429,303.843 80,305.878 80,308 c 0,2.122 0.8429,4.157 2.3431,5.657 1.5003,1.5 3.5352,2.343 5.6569,2.343 2.1217,0 4.1566,-0.843 5.6569,-2.343 C 95.1571,312.157 96,310.122 96,308 96,305.878 95.1571,303.843 93.6569,302.343 92.1566,300.843 90.1217,300 88,300 Z m 3.8906,5.025 c 0.1278,0 0.2537,0.049 0.3516,0.147 0.1959,0.196 0.1959,0.511 0,0.707 l -4.9492,4.949 c -0.1959,0.196 -0.5112,0.196 -0.7071,0 L 83.7578,308 c -0.1959,-0.196 -0.1959,-0.511 0,-0.707 0.1959,-0.196 0.5112,-0.196 0.707,0 l 2.4747,2.475 4.5957,-4.596 c 0.0979,-0.098 0.2276,-0.147 0.3554,-0.147 z"
       fill="url(#paint27_linear_1_4)"
       id="path41" />
  </g>
  <g
     inkscape:groupmode="layer"
     id="**menu-checkbox-checked"
     inkscape:label="**menu-checkbox-checked"
     style="display:inline">
    <path
       d="m 88,272 c -2.1217,0 -4.1566,0.843 -5.6569,2.343 C 80.8429,275.843 80,277.878 80,280 c 0,2.122 0.8429,4.157 2.3431,5.657 1.5003,1.5 3.5352,2.343 5.6569,2.343 2.1217,0 4.1566,-0.843 5.6569,-2.343 C 95.1571,284.157 96,282.122 96,280 96,277.878 95.1571,275.843 93.6569,274.343 92.1566,272.843 90.1217,272 88,272 Z m 3.8906,5.025 c 0.1278,0 0.2537,0.049 0.3516,0.147 0.1959,0.196 0.1959,0.511 0,0.707 l -4.9492,4.949 c -0.1959,0.196 -0.5112,0.196 -0.7071,0 L 83.7578,280 c -0.1959,-0.196 -0.1959,-0.511 0,-0.707 0.1959,-0.196 0.5112,-0.196 0.707,0 l 2.4747,2.475 4.5957,-4.596 c 0.0979,-0.098 0.2276,-0.147 0.3554,-0.147 z"
       fill="url(#paint28_linear_1_4)"
       id="path42" />
  </g>
  <g
     inkscape:groupmode="layer"
     id="**entry-active"
     inkscape:label="**entry-active"
     style="display:inline">
    <path
       opacity="0.05"
       d="m 182,80 h -36 c -3.314,0 -6,2.6863 -6,6 v 16 c 0,3.314 2.686,6 6,6 h 36 c 3.314,0 6,-2.686 6,-6 V 86 c 0,-3.3137 -2.686,-6 -6,-6 z"
       fill="**base07**"
       id="path43" />
    <path
       d="m 146,80 c -3.324,0 -6,2.676 -6,6 v 16 c 0,3.324 2.676,6 6,6 h 36 c 3.324,0 6,-2.676 6,-6 V 86 c 0,-3.324 -2.676,-6 -6,-6 z m 0,2 h 36 c 2.216,0 4,1.784 4,4 v 16 c 0,2.216 -1.784,4 -4,4 h -36 c -2.216,0 -4,-1.784 -4,-4 V 86 c 0,-2.216 1.784,-4 4,-4 z"
       fill="url(#paint29_linear_1_4)"
       id="path44" />
  </g>
  <g
     inkscape:groupmode="layer"
     id="**combo-left-entry-active"
     inkscape:label="**combo-left-entry-active">
    <g
       mask="url(#mask5_12_3-0)"
       id="g50"
       transform="translate(-56,55)">
      <path
         opacity="0.05"
         d="m 198,80 h 36 c 3.314,0 6,2.6863 6,6 v 16 c 0,3.314 -2.686,6 -6,6 h -36 c -3.314,0 -6,-2.686 -6,-6 V 86 c 0,-3.3137 2.686,-6 6,-6 z"
         fill="**base00**"
         id="path49" />
      <path
         d="m 234,80 c 3.324,0 6,2.676 6,6 v 16 c 0,3.324 -2.676,6 -6,6 h -36 c -3.324,0 -6,-2.676 -6,-6 V 86 c 0,-3.324 2.676,-6 6,-6 z m 0,2 h -36 c -2.216,0 -4,1.784 -4,4 v 16 c 0,2.216 1.784,4 4,4 h 36 c 2.216,0 4,-1.784 4,-4 V 86 c 0,-2.216 -1.784,-4 -4,-4 z"
         fill="url(#paint31_linear_12_3)"
         id="path50"
         style="fill:url(#paint31_linear_12_3-3)" />
    </g>
  </g>
  <g
     inkscape:groupmode="layer"
     id="**combo-right-entry-active"
     inkscape:label="**combo-right-entry-active">
    <g
       mask="url(#mask4_12_3-8)"
       id="g47"
       transform="translate(-56,55)">
      <path
         opacity="0.05"
         d="m 234,80 h -36 c -3.314,0 -6,2.6863 -6,6 v 16 c 0,3.314 2.686,6 6,6 h 36 c 3.314,0 6,-2.686 6,-6 V 86 c 0,-3.3137 -2.686,-6 -6,-6 z"
         fill="**base00**"
         id="path46" />
      <path
         d="m 198,80 c -3.324,0 -6,2.676 -6,6 v 16 c 0,3.324 2.676,6 6,6 h 36 c 3.324,0 6,-2.676 6,-6 V 86 c 0,-3.324 -2.676,-6 -6,-6 z m 0,2 h 36 c 2.216,0 4,1.784 4,4 v 16 c 0,2.216 -1.784,4 -4,4 h -36 c -2.216,0 -4,-1.784 -4,-4 V 86 c 0,-2.216 1.784,-4 4,-4 z"
         fill="url(#paint30_linear_12_3)"
         id="path47"
         style="fill:url(#paint30_linear_12_3-9)" />
    </g>
  </g>
  <g
     inkscape:groupmode="layer"
     id="**checkbox-mixed-hover"
     inkscape:label="**checkbox-mixed-hover"
     style="display:inline">
    <rect
       style="display:inline;opacity:0;fill:**base07**"
       id="rect2-6-3-5"
       width="24"
       height="24"
       x="17"
       y="409" />
    <path
       d="m 29,411 c -5.52,0 -10,4.48 -10,10 0,5.52 4.48,10 10,10 5.52,0 10,-4.48 10,-10 0,-5.52 -4.48,-10 -10,-10 z m -4.5,10 h 9 c 0.277,0 0.5,0.223 0.5,0.5 0,0.277 -0.223,0.5 -0.5,0.5 h -9 c -0.277,0 -0.5,-0.223 -0.5,-0.5 0,-0.277 0.223,-0.5 0.5,-0.5 z"
       fill="url(#paint32_linear_1_4)"
       id="path51"
       style="display:inline;fill:url(#paint32_linear_1_4)" />
    <path
       opacity="0.15"
       d="m 29,411 c -5.52,0 -10,4.48 -10,10 0,5.52 4.48,10 10,10 5.52,0 10,-4.48 10,-10 0,-5.52 -4.48,-10 -10,-10 z"
       fill="**base00**"
       id="path52"
       style="display:inline" />
  </g>
  <g
     inkscape:groupmode="layer"
     id="**checkbox-mixed-disabled"
     inkscape:label="**checkbox-mixed-disabled"
     style="display:inline">
    <rect
       style="display:inline;opacity:0;fill:**base07**"
       id="rect2-6-3-7"
       width="24"
       height="24"
       x="17"
       y="465" />
    <g
       opacity="0.35"
       id="g53"
       style="display:inline"
       transform="translate(1,1)">
      <path
         d="m 28,466 c -5.52,0 -10,4.48 -10,10 0,5.52 4.48,10 10,10 5.52,0 10,-4.48 10,-10 0,-5.52 -4.48,-10 -10,-10 z m -4.5,10 h 9 c 0.277,0 0.5,0.223 0.5,0.5 0,0.277 -0.223,0.5 -0.5,0.5 h -9 c -0.277,0 -0.5,-0.223 -0.5,-0.5 0,-0.277 0.223,-0.5 0.5,-0.5 z"
         fill="url(#paint33_linear_1_4)"
         id="path53"
         style="fill:url(#paint33_linear_1_4)" />
    </g>
  </g>
  <g
     inkscape:groupmode="layer"
     id="**checkbox-mixed-active"
     inkscape:label="**checkbox-mixed-active"
     style="display:inline">
    <rect
       style="display:inline;opacity:0;fill:**base07**"
       id="rect2-6-3-6"
       width="24"
       height="24"
       x="17"
       y="437" />
    <path
       d="m 29,439 c -5.52,0 -10,4.48 -10,10 0,5.52 4.48,10 10,10 5.52,0 10,-4.48 10,-10 0,-5.52 -4.48,-10 -10,-10 z m -4.5,10 h 9 c 0.277,0 0.5,0.223 0.5,0.5 0,0.277 -0.223,0.5 -0.5,0.5 h -9 c -0.277,0 -0.5,-0.223 -0.5,-0.5 0,-0.277 0.223,-0.5 0.5,-0.5 z"
       fill="url(#paint34_linear_1_4)"
       id="path54"
       style="display:inline;fill:url(#paint34_linear_1_4)" />
    <path
       opacity="0.15"
       d="m 29,439 c -5.52,0 -10,4.48 -10,10 0,5.52 4.48,10 10,10 5.52,0 10,-4.48 10,-10 0,-5.52 -4.48,-10 -10,-10 z"
       fill="**base07**"
       id="path55"
       style="display:inline" />
  </g>
  <g
     inkscape:groupmode="layer"
     id="**checkbox-mixed"
     inkscape:label="**checkbox-mixed"
     style="display:inline">
    <rect
       style="display:inline;opacity:0;fill:**base07**"
       id="rect2-6-3"
       width="24"
       height="24"
       x="17"
       y="381" />
    <path
       d="m 29,383 c -5.52,0 -10,4.48 -10,10 0,5.52 4.48,10 10,10 5.52,0 10,-4.48 10,-10 0,-5.52 -4.48,-10 -10,-10 z m -4.5,10 h 9 c 0.277,0 0.5,0.223 0.5,0.5 0,0.277 -0.223,0.5 -0.5,0.5 h -9 c -0.277,0 -0.5,-0.223 -0.5,-0.5 0,-0.277 0.223,-0.5 0.5,-0.5 z"
       fill="url(#paint35_linear_1_4)"
       id="path56"
       style="fill:url(#paint35_linear_1_4)" />
  </g>
  <g
     inkscape:groupmode="layer"
     id="**checkbox-checked-hover"
     inkscape:label="**checkbox-checked-hover"
     style="display:inline">
    <rect
       style="display:inline;opacity:0;fill:**base07**"
       id="rect2-6-5"
       width="24"
       height="24"
       x="17"
       y="297" />
    <path
       opacity="0.15"
       d="m 29,299 c -5.52,0 -10,4.48 -10,10 0,5.52 4.48,10 10,10 5.52,0 10,-4.48 10,-10 0,-5.52 -4.48,-10 -10,-10 z"
       fill="**base00**"
       id="path58"
       style="display:inline" />
    <path
       d="m 29,299 c -2.6522,0 -5.1957,1.054 -7.0711,2.929 C 20.0536,303.804 19,306.348 19,309 c 0,2.652 1.0536,5.196 2.9289,7.071 1.8754,1.875 4.4189,2.929 7.0711,2.929 2.6522,0 5.1957,-1.054 7.0711,-2.929 C 37.9464,314.196 39,311.652 39,309 39,306.348 37.9464,303.804 36.0711,301.929 34.1957,300.054 31.6522,299 29,299 Z m 5.6289,5.963 v 0.002 c 0.1278,0 0.2556,0.048 0.3535,0.146 0.1959,0.196 0.1959,0.512 0,0.707 l -7.0723,7.073 c -0.0245,0.024 -0.0503,0.046 -0.0781,0.064 -0.0277,0.019 -0.0559,0.033 -0.086,0.045 -0.03,0.012 -0.0622,0.019 -0.0937,0.025 -0.0315,0.006 -0.0637,0.012 -0.0957,0.012 -0.0319,0 -0.0623,-0.006 -0.0937,-0.012 -0.0315,-0.006 -0.0637,-0.013 -0.0938,-0.025 -0.0301,-0.012 -0.0582,-0.027 -0.0859,-0.045 -0.0139,-0.009 -0.0279,-0.02 -0.0411,-0.031 -0.0131,-0.011 -0.0268,-0.023 -0.039,-0.035 l -4.1855,-4.188 c -0.1959,-0.196 -0.1959,-0.511 0,-0.707 0.1959,-0.196 0.5112,-0.196 0.707,0 l 3.832,3.834 6.7188,-6.719 c 0.098,-0.098 0.2257,-0.146 0.3535,-0.146 z"
       fill="url(#paint36_linear_1_4)"
       id="path57"
       style="display:inline;fill:url(#paint36_linear_1_4)" />
  </g>
  <g
     inkscape:groupmode="layer"
     id="**checkbox-checked-disabled"
     inkscape:label="**checkbox-checked-disabled">
    <rect
       style="opacity:0;fill:**base07**"
       id="rect2-6"
       width="24"
       height="24"
       x="16"
       y="350" />
    <g
       opacity="0.35"
       id="g59">
      <path
         d="M28 352C25.3478 352 22.8043 353.054 20.9289 354.929C19.0536 356.804 18 359.348 18 362C18 364.652 19.0536 367.196 20.9289 369.071C22.8043 370.946 25.3478 372 28 372C30.6522 372 33.1957 370.946 35.0711 369.071C36.9464 367.196 38 364.652 38 362C38 359.348 36.9464 356.804 35.0711 354.929C33.1957 353.054 30.6522 352 28 352ZM33.6289 357.963V357.965C33.7567 357.965 33.8845 358.013 33.9824 358.111C34.1783 358.307 34.1783 358.623 33.9824 358.818L26.9101 365.891C26.8856 365.915 26.8598 365.937 26.832 365.955C26.8043 365.974 26.7761 365.988 26.746 366C26.716 366.012 26.6838 366.019 26.6523 366.025C26.6208 366.031 26.5886 366.037 26.5566 366.037C26.5247 366.037 26.4943 366.031 26.4629 366.025C26.4314 366.019 26.3992 366.012 26.3691 366C26.339 365.988 26.3109 365.973 26.2832 365.955C26.2693 365.946 26.2553 365.935 26.2421 365.924C26.229 365.913 26.2153 365.901 26.2031 365.889L22.0176 361.701C21.8217 361.505 21.8217 361.19 22.0176 360.994C22.2135 360.798 22.5288 360.798 22.7246 360.994L26.5566 364.828L33.2754 358.109C33.3734 358.011 33.5011 357.963 33.6289 357.963Z"
         fill="url(#paint37_linear_1_4)"
         id="path59" />
    </g>
  </g>
  <g
     inkscape:groupmode="layer"
     id="**checkbox-checked-active"
     inkscape:label="**checkbox-checked-active">
    <rect
       style="opacity:0;fill:**base07**"
       id="rect2-3"
       width="24"
       height="24"
       x="16"
       y="322" />
    <path
       d="M28 324C25.3478 324 22.8043 325.054 20.9289 326.929C19.0536 328.804 18 331.348 18 334C18 336.652 19.0536 339.196 20.9289 341.071C22.8043 342.946 25.3478 344 28 344C30.6522 344 33.1957 342.946 35.0711 341.071C36.9464 339.196 38 336.652 38 334C38 331.348 36.9464 328.804 35.0711 326.929C33.1957 325.054 30.6522 324 28 324ZM33.6289 329.963V329.965C33.7567 329.965 33.8845 330.013 33.9824 330.111C34.1783 330.307 34.1783 330.623 33.9824 330.818L26.9101 337.891C26.8856 337.915 26.8598 337.937 26.832 337.955C26.8043 337.974 26.7761 337.988 26.746 338C26.716 338.012 26.6838 338.019 26.6523 338.025C26.6208 338.031 26.5886 338.037 26.5566 338.037C26.5247 338.037 26.4943 338.031 26.4629 338.025C26.4314 338.019 26.3992 338.012 26.3691 338C26.339 337.988 26.3109 337.973 26.2832 337.955C26.2693 337.946 26.2553 337.935 26.2421 337.924C26.229 337.913 26.2153 337.901 26.2031 337.889L22.0176 333.701C21.8217 333.505 21.8217 333.19 22.0176 332.994C22.2135 332.798 22.5288 332.798 22.7246 332.994L26.5566 336.828L33.2754 330.109C33.3734 330.011 33.5011 329.963 33.6289 329.963Z"
       fill="url(#paint38_linear_1_4)"
       id="path60" />
    <path
       opacity="0.15"
       d="m 28,324 c -5.52,0 -10,4.48 -10,10 0,5.52 4.48,10 10,10 5.52,0 10,-4.48 10,-10 0,-5.52 -4.48,-10 -10,-10 z"
       fill="**base07**"
       id="path61"
       style="display:inline" />
  </g>
  <g
     inkscape:groupmode="layer"
     id="**checkbox-checked"
     inkscape:label="**checkbox-checked">
    <rect
       style="opacity:0;fill:**base07**"
       id="rect2"
       width="24"
       height="24"
       x="16"
       y="269" />
    <path
       d="m 28,271 c -2.6522,0 -5.1957,1.054 -7.0711,2.929 C 19.0536,275.804 18,278.348 18,281 c 0,2.652 1.0536,5.196 2.9289,7.071 1.8754,1.875 4.4189,2.929 7.0711,2.929 2.6522,0 5.1957,-1.054 7.0711,-2.929 C 36.9464,286.196 38,283.652 38,281 38,278.348 36.9464,275.804 35.0711,273.929 33.1957,272.054 30.6522,271 28,271 Z m 5.6289,5.963 v 0.002 c 0.1278,0 0.2556,0.048 0.3535,0.146 0.1959,0.196 0.1959,0.512 0,0.707 l -7.0723,7.073 c -0.0245,0.024 -0.0503,0.046 -0.0781,0.064 -0.0277,0.019 -0.0559,0.033 -0.086,0.045 -0.03,0.012 -0.0622,0.019 -0.0937,0.025 -0.0315,0.006 -0.0637,0.012 -0.0957,0.012 -0.0319,0 -0.0623,-0.006 -0.0937,-0.012 -0.0315,-0.006 -0.0637,-0.013 -0.0938,-0.025 -0.0301,-0.012 -0.0582,-0.027 -0.0859,-0.045 -0.0139,-0.009 -0.0279,-0.02 -0.0411,-0.031 -0.0131,-0.011 -0.0268,-0.023 -0.039,-0.035 l -4.1855,-4.188 c -0.1959,-0.196 -0.1959,-0.511 0,-0.707 0.1959,-0.196 0.5112,-0.196 0.707,0 l 3.832,3.834 6.7188,-6.719 c 0.098,-0.098 0.2257,-0.146 0.3535,-0.146 z"
       fill="url(#paint39_linear_1_4)"
       id="path62"
       style="fill:url(#paint39_linear_1_4)" />
  </g>
  <g
     inkscape:groupmode="layer"
     id="**spin-rtl-up-active"
     inkscape:label="**spin-rtl-up-active">
    <g
       mask="url(#mask0_12_3)"
       id="g5"
       transform="translate(-52,55)">
      <path
         opacity="0.05"
         d="m 250,80 h 36 c 3.314,0 6,2.6863 6,6 v 16 c 0,3.314 -2.686,6 -6,6 h -36 c -3.314,0 -6,-2.686 -6,-6 V 86 c 0,-3.3137 2.686,-6 6,-6 z"
         fill="**base00**"
         id="path4" />
      <path
         d="m 286,80 c 3.324,0 6,2.676 6,6 v 16 c 0,3.324 -2.676,6 -6,6 h -36 c -3.324,0 -6,-2.676 -6,-6 V 86 c 0,-3.324 2.676,-6 6,-6 z m 0,2 h -36 c -2.216,0 -4,1.784 -4,4 v 16 c 0,2.216 1.784,4 4,4 h 36 c 2.216,0 4,-1.784 4,-4 V 86 c 0,-2.216 -1.784,-4 -4,-4 z"
         fill="url(#paint1_linear_12_3)"
         id="path5"
         style="fill:url(#paint1_linear_12_3)" />
    </g>
  </g>
  <g
     inkscape:groupmode="layer"
     id="**spin-ltr-down-active"
     inkscape:label="**spin-ltr-down-active">
    <g
       mask="url(#mask3_12_3-2)"
       id="g14"
       transform="translate(-52,55)">
      <path
         opacity="0.05"
         d="m 286,108 h -36 c -3.314,0 -6,-2.686 -6,-6 V 86 c 0,-3.3137 2.686,-6 6,-6 h 36 c 3.314,0 6,2.6863 6,6 v 16 c 0,3.314 -2.686,6 -6,6 z"
         fill="**base00**"
         id="path13" />
      <path
         d="m 250,108 c -3.324,0 -6,-2.676 -6,-6 V 86 c 0,-3.324 2.676,-6 6,-6 h 36 c 3.324,0 6,2.676 6,6 v 16 c 0,3.324 -2.676,6 -6,6 z m 0,-2 h 36 c 2.216,0 4,-1.784 4,-4 V 86 c 0,-2.216 -1.784,-4 -4,-4 h -36 c -2.216,0 -4,1.784 -4,4 v 16 c 0,2.216 1.784,4 4,4 z"
         fill="url(#paint4_linear_12_3)"
         id="path14"
         style="fill:url(#paint4_linear_1_4)" />
    </g>
  </g>
  <g
     inkscape:groupmode="layer"
     id="**spin-rtl-down-active"
     inkscape:label="**spin-rtl-down-active">
    <g
       mask="url(#mask1_12_3-9)"
       id="g8"
       transform="translate(-52,55)">
      <path
         opacity="0.05"
         d="m 250,108 h 36 c 3.314,0 6,-2.686 6,-6 V 86 c 0,-3.3137 -2.686,-6 -6,-6 h -36 c -3.314,0 -6,2.6863 -6,6 v 16 c 0,3.314 2.686,6 6,6 z"
         fill="**base00**"
         id="path7" />
      <path
         d="m 286,108 c 3.324,0 6,-2.676 6,-6 V 86 c 0,-3.324 -2.676,-6 -6,-6 h -36 c -3.324,0 -6,2.676 -6,6 v 16 c 0,3.324 2.676,6 6,6 z m 0,-2 h -36 c -2.216,0 -4,-1.784 -4,-4 V 86 c 0,-2.216 1.784,-4 4,-4 h 36 c 2.216,0 4,1.784 4,4 v 16 c 0,2.216 -1.784,4 -4,4 z"
         fill="url(#paint2_linear_12_3)"
         id="path8"
         style="fill:url(#paint2_linear_1_4)" />
    </g>
  </g>
  <g
     inkscape:groupmode="layer"
     id="**spin-ltr-up-active"
     inkscape:label="**spin-ltr-up-active">
    <g
       mask="url(#mask2_12_3-0)"
       id="g11"
       transform="translate(-52,55)">
      <path
         opacity="0.05"
         d="m 286,80 h -36 c -3.314,0 -6,2.6863 -6,6 v 16 c 0,3.314 2.686,6 6,6 h 36 c 3.314,0 6,-2.686 6,-6 V 86 c 0,-3.3137 -2.686,-6 -6,-6 z"
         fill="**base00**"
         id="path10-9" />
      <path
         d="m 250,80 c -3.324,0 -6,2.676 -6,6 v 16 c 0,3.324 2.676,6 6,6 h 36 c 3.324,0 6,-2.676 6,-6 V 86 c 0,-3.324 -2.676,-6 -6,-6 z m 0,2 h 36 c 2.216,0 4,1.784 4,4 v 16 c 0,2.216 -1.784,4 -4,4 h -36 c -2.216,0 -4,-1.784 -4,-4 V 86 c 0,-2.216 1.784,-4 4,-4 z"
         fill="url(#paint3_linear_12_3)"
         id="path11-1"
         style="fill:url(#paint3_linear_12_3)" />
    </g>
  </g>
</svg>
